<?xml version="1.0" standalone="no"?>
<!DOCTYPE svg PUBLIC "-//W3C//DTD SVG 1.1//EN" "http://www.w3.org/Graphics/SVG/1.1/DTD/svg11.dtd" >
<svg xmlns="http://www.w3.org/2000/svg">
<metadata></metadata>
<defs>
<font id="avant_garde_extra_light_hacRg" horiz-adv-x="1136" >
<font-face units-per-em="2048" ascent="1638" descent="-410" />
<missing-glyph horiz-adv-x="567" />
<glyph horiz-adv-x="2048" />
<glyph horiz-adv-x="2048" />
<glyph unicode="&#xd;" horiz-adv-x="2048" />
<glyph unicode=" "  horiz-adv-x="567" />
<glyph unicode="&#x09;" horiz-adv-x="567" />
<glyph unicode="&#xa0;" horiz-adv-x="567" />
<glyph unicode="!" horiz-adv-x="530" d="M235 0v166h61v-166h-61zM235 340v1176h61v-1176h-61z" />
<glyph unicode="&#x22;" horiz-adv-x="681" d="M192 909v607h61v-607h-61zM428 909v607h61v-607h-61z" />
<glyph unicode="#" d="M36 555v47h315l39 281h-309v47h317l64 452h49l-63 -452h293l63 452h49l-63 -452h309v-47h-318l-38 -281h311v-47h-316l-69 -492h-49l67 492h-293l-67 -492h-51l69 492h-309zM401 602h292l41 281h-292z" />
<glyph unicode="$" d="M169 465h61q15 -162 126 -251q95 -77 223 -77q137 0 233 95q94 95 94 231q0 160 -116 242q-70 49 -259 102q-303 84 -303 338q0 138 87 235q88 97 229 115v164h61v-164q159 -20 247 -124q72 -86 83 -208h-61q-17 142 -121 218q-81 59 -174 59q-112 0 -197 -79 q-92 -86 -92 -216q0 -139 101 -210q62 -44 233 -91q140 -41 212 -96q132 -102 132 -287q0 -145 -100 -256q-105 -117 -263 -127v-195h-61v195q-157 14 -261 120q-105 107 -114 267z" />
<glyph unicode="%" horiz-adv-x="1472" d="M45 1208v2q0 143 95 238q95 94 239 94t239 -95q95 -94 95 -239q0 -144 -95 -239t-239 -95q-145 0 -239 95q-95 95 -95 239zM102 1206q0 -122 77 -201q78 -79 200 -79t200 80q76 79 76 202q0 124 -76 203q-78 80 -200 80t-200 -80q-77 -79 -77 -203v-2zM233 0l936 1516h66 l-936 -1516h-66zM760 307v2q0 143 94 238q95 94 240 94q144 0 239 -95q94 -94 94 -239q0 -144 -94 -239q-95 -95 -239 -95q-145 0 -240 95q-94 95 -94 239zM817 305q0 -122 77 -201t200 -79q122 0 199 79q77 80 77 203q0 124 -77 203q-77 80 -199 80q-123 0 -200 -80 q-77 -79 -77 -203v-2z" />
<glyph unicode="&#x26;" horiz-adv-x="1476" d="M112 397q0 312 406 473l-141 158q-66 91 -70 193q0 130 90 224q93 97 229 97q140 0 239 -99q97 -97 97 -231q0 -139 -106 -228q-62 -52 -240 -132l379 -387l258 491h63l-278 -534l393 -404l-43 -41l-379 388q-107 -214 -201 -296q-110 -96 -282 -96q-180 0 -301 134 q-113 125 -113 290zM173 395q2 -146 99 -252q103 -112 260 -112q152 0 254 97q84 81 178 280l-406 419q-381 -167 -385 -432zM368 1229q0 -116 207 -332q188 83 246 133q79 69 79 184q0 107 -75 185q-79 82 -197 82h-2q-117 0 -192 -84q-66 -74 -66 -168z" />
<glyph unicode="'" horiz-adv-x="454" d="M196 909v607h61v-607h-61z" />
<glyph unicode="(" horiz-adv-x="870" d="M210 494q0 322 166 610q162 283 428 438v-72q-229 -141 -373 -396q-155 -273 -155 -580q0 -309 155 -583q144 -255 373 -396v-76q-594 385 -594 1055z" />
<glyph unicode=")" horiz-adv-x="870" d="M65 -492q229 144 373 399q155 273 155 580q0 308 -155 582q-145 256 -373 397v76q594 -388 594 -1055q0 -322 -166 -611q-163 -283 -428 -437v69z" />
<glyph unicode="*" horiz-adv-x="1173" d="M309 1087l219 127l-219 123l31 54l217 -127v252h59v-252l217 127l29 -52l-215 -125l219 -129l-29 -49l-221 125v-252h-59v254l-217 -127z" />
<glyph unicode="+" horiz-adv-x="1228" d="M102 483v58h483v485h58v-485h483v-58h-483v-483h-58v483h-483z" />
<glyph unicode="," horiz-adv-x="567" d="M124 -147l129 315h66l-129 -315h-66z" />
<glyph unicode="-" horiz-adv-x="544" d="M0 537v59h545v-59h-545z" />
<glyph unicode="." horiz-adv-x="567" d="M253 0v166h61v-166h-61z" />
<glyph unicode="/" horiz-adv-x="1060" d="M137 -205l719 1721h67l-718 -1721h-68z" />
<glyph unicode="0" d="M79 455v587q0 283 199 415q130 85 282 85q207 0 348 -131q146 -137 146 -350v-606q0 -255 -192 -387q-138 -95 -291 -95q-174 0 -312 102q-180 132 -180 380zM140 455q0 -197 132 -316q121 -110 294 -110q149 0 269 89q157 117 157 337v606q0 168 -104 288 q-119 138 -328 138q-175 0 -292 -111q-128 -121 -128 -327v-594z" />
<glyph unicode="1" d="M227 1460v56h397v-1516h-61v1460h-336z" />
<glyph unicode="2" d="M116 0v55l547 559q163 166 198 212q102 132 109 261q2 175 -110 288q-109 112 -275 112q-158 0 -263 -107q-116 -119 -120 -327h-61q5 243 151 374q124 115 301 115q190 0 315 -132q127 -132 123 -333q-11 -166 -223 -401q-405 -414 -610 -621h833v-55h-915z" />
<glyph unicode="3" d="M79 440h61q6 -199 139 -313q114 -98 267 -98q179 0 292 119q107 115 107 284q0 151 -100 268q-120 140 -332 140h-82v55h80q197 0 282 125q52 77 52 172q0 129 -80 212q-81 83 -207 83q-130 0 -214 -86q-79 -81 -87 -203h-61q10 163 122 259q100 85 234 85q145 0 245 -89 q109 -98 109 -263q0 -211 -213 -322q172 -60 254 -202q60 -105 60 -222q0 -211 -131 -341q-129 -130 -336 -130q-224 0 -361 172q-100 124 -100 295z" />
<glyph unicode="4" d="M8 295v53l770 1168h84v-1166h154v-55h-154v-295h-61v295h-793zM80 350h721v1092z" />
<glyph unicode="5" d="M43 444h61q22 -191 161 -309q126 -106 284 -106q179 0 311 135q133 136 133 323q0 195 -134 332q-132 133 -310 133q-203 0 -346 -176l-54 15l140 725h680v-56h-631l-111 -571q159 119 326 119q214 0 361 -157q141 -151 141 -357q0 -219 -154 -372q-149 -149 -354 -149 q-169 0 -312 113q-168 133 -192 358z" />
<glyph unicode="6" d="M67 469q0 190 129 379l459 668h65l-397 -592q117 77 250 77q203 0 346 -141q147 -146 147 -368q0 -211 -140 -362q-146 -157 -359 -157q-238 0 -381 168q-119 143 -119 328zM128 471q0 -182 116 -308q123 -134 321 -134q191 0 317 136q123 132 123 320q0 217 -142 348 q-124 113 -288 113q-162 0 -289 -107q-158 -131 -158 -366v-2z" />
<glyph unicode="7" d="M178 1460v56h805v-56l-676 -1460h-63l673 1460h-739z" />
<glyph unicode="8" d="M106 428q3 151 91 269q87 116 226 161q-97 42 -159 132q-62 91 -62 196v2q0 142 107 248q108 106 258 106q151 0 257 -104q107 -104 107 -252q0 -105 -62 -196q-61 -90 -159 -132q139 -43 226 -160q89 -118 92 -270q-5 -191 -138 -323t-323 -132t-324 132 q-132 132 -137 323zM167 426q0 -166 116 -282q117 -115 284 -115t283 116t116 283t-116 283t-283 116q-168 0 -284 -116t-116 -283v-2zM264 1182q0 -125 88 -212t215 -87t215 87q88 88 88 214q0 127 -88 215t-215 88q-128 0 -215 -88q-88 -88 -88 -215v-2z" />
<glyph unicode="9" d="M69 1024q0 211 141 362q145 156 359 156q238 0 381 -168q118 -142 118 -327q0 -190 -129 -379l-458 -668h-66l397 592q-40 -28 -106 -53q-70 -25 -143 -25q-204 0 -346 141q-148 147 -148 369zM130 1030q0 -217 143 -347q123 -114 288 -114q161 0 289 107 q157 132 157 366v2q0 183 -115 308q-123 135 -321 135q-191 0 -318 -136q-123 -132 -123 -321z" />
<glyph unicode=":" horiz-adv-x="567" d="M253 0v166h61v-166h-61zM253 920v165h61v-165h-61z" />
<glyph unicode=";" horiz-adv-x="567" d="M124 -147l129 315h66l-129 -315h-66zM251 920v165h61v-165h-61z" />
<glyph unicode="&#x3c;" horiz-adv-x="1228" d="M102 481v66l1024 481v-63l-956 -451l956 -451v-63z" />
<glyph unicode="=" horiz-adv-x="1228" d="M102 285v57h1024v-57h-1024zM102 682v57h1024v-57h-1024z" />
<glyph unicode="&#x3e;" horiz-adv-x="1228" d="M102 0v63l956 451l-956 451v63l1024 -481v-66z" />
<glyph unicode="?" horiz-adv-x="1097" d="M81 1114q0 19 4 55q28 192 178 294q117 79 258 79q176 0 303 -119q131 -124 131 -311q0 -160 -243 -395q-154 -152 -154 -377h-61q8 264 186 434q128 133 143 153q64 86 68 189q0 150 -105 255q-107 108 -266 108q-127 0 -228 -69q-121 -82 -146 -234q-7 -31 -7 -62h-61z M497 0v166h59v-166h-59z" />
<glyph unicode="@" horiz-adv-x="1630" d="M83 748q0 330 227 561q228 233 559 233q273 0 476 -162q227 -181 227 -477q0 -269 -185 -438q-149 -135 -296 -135q-162 0 -164 153q-105 -145 -262 -145q-78 0 -137 49q-85 70 -85 217q0 216 133 395q134 181 302 181q160 0 221 -170l47 137h57l-196 -557l-27 -105 q-4 -102 113 -102q135 0 266 130q156 155 156 388q0 279 -210 444q-183 144 -431 144q-302 0 -514 -205q-220 -213 -220 -536q0 -319 219 -526q207 -195 494 -195q181 0 346 84q190 97 281 272h51q-86 -204 -300 -316q-180 -94 -376 -94q-325 0 -549 225q-223 225 -223 550z M501 602q0 -211 168 -211q216 0 303 273q90 234 90 282q-3 93 -69 143q-50 37 -111 37q-134 0 -254 -152q-127 -163 -127 -370v-2z" />
<glyph unicode="A" horiz-adv-x="1406" d="M14 0l649 1516h80l649 -1516h-65l-228 528h-792l-227 -528h-66zM333 584h740l-371 874z" />
<glyph unicode="B" horiz-adv-x="1105" d="M157 0v1516h322q171 0 266 -56q178 -94 178 -325q0 -225 -215 -332q185 -53 262 -204q47 -91 47 -196q-3 -266 -239 -368q-102 -35 -242 -35h-379zM218 55h320q128 0 217 33q198 85 201 315q0 235 -205 326q-87 37 -258 37h-275v-711zM218 821h275q143 0 215 39 q154 87 154 283q0 203 -154 272q-75 43 -229 45h-261v-639z" />
<glyph unicode="C" horiz-adv-x="1609" d="M83 758q0 337 230 562q227 222 556 222q431 -3 664 -364h-72q-220 307 -592 309q-303 0 -513 -207q-212 -210 -212 -522t212 -522q210 -207 513 -207q374 0 592 301h70q-86 -146 -250 -244q-189 -113 -412 -113q-329 0 -556 222q-230 225 -230 563z" />
<glyph unicode="D" horiz-adv-x="1435" d="M157 0v1516h428q360 0 561 -201q203 -200 203 -557t-203 -558q-202 -200 -561 -200h-428zM218 55h367q329 0 516 185q186 185 186 514q0 332 -184 520q-186 186 -518 186h-367v-1405z" />
<glyph unicode="E" horiz-adv-x="1120" d="M157 0v1516h831v-56h-770v-669h770v-56h-770v-680h770v-55h-831z" />
<glyph unicode="F" horiz-adv-x="976" d="M157 0v1516h743v-56h-682v-669h682v-56h-682v-735h-61z" />
<glyph unicode="G" horiz-adv-x="1746" d="M83 758q0 337 230 562q227 222 556 222q211 0 397 -97q190 -98 292 -265h-74q-93 120 -213 194q-179 113 -402 113q-303 0 -513 -207q-212 -210 -212 -522t212 -522q210 -207 513 -207q277 0 490 172q202 163 244 385h-904v55h977q-12 -117 -65 -223q-96 -198 -293 -319 q-203 -126 -449 -126q-329 0 -556 222q-230 225 -230 563z" />
<glyph unicode="H" horiz-adv-x="1286" d="M157 0v1516h61v-725h848v725h62v-1516h-62v735h-848v-735h-61z" />
<glyph unicode="I" horiz-adv-x="378" d="M157 0v1516h61v-1516h-61z" />
<glyph unicode="J" horiz-adv-x="927" d="M12 289h68l6 -23q68 -237 307 -237q222 5 285 178q32 83 32 227v1082h62v-1082q0 -159 -37 -250q-40 -84 -105 -133q-103 -78 -241 -78q-122 0 -220 67q-106 73 -145 200z" />
<glyph unicode="K" horiz-adv-x="1097" d="M186 0v1516h61v-760l707 760h74l-701 -758l770 -758h-82l-768 752v-752h-61z" />
<glyph unicode="L" horiz-adv-x="866" d="M157 0v1516h61v-1461h641v-55h-702z" />
<glyph unicode="M" horiz-adv-x="1910" d="M157 0v1516h98l701 -1418l698 1418h96v-1516h-61v1454l-717 -1454h-35l-719 1454v-1454h-61z" />
<glyph unicode="N" horiz-adv-x="1511" d="M157 0v1516h92l1043 -1434v1434h61v-1516h-78l-1057 1454v-1454h-61z" />
<glyph unicode="O" horiz-adv-x="1742" d="M83 758v2q0 336 230 561q227 221 556 221q330 0 556 -222q231 -225 231 -562q0 -338 -231 -563q-226 -222 -556 -222q-329 0 -556 222q-230 225 -230 563zM144 756q0 -311 212 -520q210 -207 513 -207q304 0 513 207q212 210 212 522t-212 522q-209 207 -513 207 q-303 0 -513 -207q-212 -210 -212 -522v-2z" />
<glyph unicode="P" horiz-adv-x="1046" d="M137 0v1516h352q256 0 379 -91q154 -111 154 -340q0 -228 -154 -340q-123 -90 -379 -90h-291v-655h-61zM198 711h293q231 0 344 84q125 90 125 288q0 203 -125 293q-113 84 -344 84h-293v-749z" />
<glyph unicode="Q" horiz-adv-x="1806" d="M114 758q0 337 230 562q227 222 556 222q330 0 556 -222q231 -225 231 -562q0 -338 -262 -594q164 -97 387 -127v-64q-67 8 -137 23q-136 30 -301 129q-210 -152 -467 -152q-352 0 -578 237q-215 225 -215 548zM175 758q0 -140 43 -254q189 61 353 61q245 0 450 -110 q72 -38 355 -254q249 216 249 557q0 312 -212 522q-209 207 -513 207h-2q-302 0 -511 -207q-212 -210 -212 -522zM243 444q201 -415 666 -415h2q238 0 415 135q-194 133 -249 188q-240 158 -514 158q-145 0 -320 -66z" />
<glyph unicode="R" horiz-adv-x="1134" d="M137 0v1516h346q295 0 404 -64q93 -47 155 -159q64 -114 64 -244v-21q0 -158 -97 -287q-121 -159 -409 -170l407 -571h-77l-445 627h43q291 0 387 96q129 134 129 324q0 235 -180 352q-95 61 -381 61h-285v-1460h-61z" />
<glyph unicode="S" horiz-adv-x="1060" d="M92 383h61q25 -193 158 -286q97 -68 217 -68q150 0 262 98q119 105 119 262q0 182 -139 277q-74 51 -248 98q-167 41 -248 96q-149 101 -149 287v14q0 172 121 278q117 103 290 103q146 0 251 -83q117 -94 141 -269h-62q-55 297 -334 297q-147 0 -245 -91 q-101 -93 -101 -242q0 -160 125 -245q81 -55 283 -106q149 -42 216 -87q161 -109 161 -319q0 -182 -136 -305q-130 -119 -305 -119q-156 0 -280 98q-144 114 -158 312z" />
<glyph unicode="T" horiz-adv-x="907" d="M10 1460v56h885v-56h-412v-1460h-61v1460h-412z" />
<glyph unicode="U" horiz-adv-x="1239" d="M160 532v984h61v-984q0 -241 95 -364q106 -139 311 -139q199 0 305 139q94 123 94 364v984h62v-984v-17q0 -321 -183 -449q-125 -93 -282 -93q-156 0 -281 93q-182 128 -182 449v17z" />
<glyph unicode="V" horiz-adv-x="1363" d="M14 1516h70l598 -1414l600 1414h67l-647 -1516h-43z" />
<glyph unicode="W" horiz-adv-x="1818" d="M24 1516h66l409 -1432l387 1432h43l395 -1432l406 1432h63l-434 -1516h-80l-370 1354l-371 -1354h-82z" />
<glyph unicode="X" d="M16 0l516 770l-498 746h74l457 -689l461 689h71l-497 -746l520 -770h-72l-483 717l-481 -717h-68z" />
<glyph unicode="Y" horiz-adv-x="1134" d="M30 1516h68l469 -924l467 924h69l-506 -994v-522h-61v522z" />
<glyph unicode="Z" horiz-adv-x="1021" d="M12 1460v56h954v-37l-854 -1424h897v-55h-968v37l854 1423h-883z" />
<glyph unicode="[" horiz-adv-x="870" d="M284 -377v1893h442v-62h-381v-1769h381v-62h-442z" />
<glyph unicode="\" horiz-adv-x="1060" d="M137 1516h68l718 -1721h-67z" />
<glyph unicode="]" horiz-adv-x="870" d="M143 -315h381v1769h-381v62h442v-1893h-442v62z" />
<glyph unicode="^" horiz-adv-x="1228" d="M229 768l352 748h66l352 -748h-65l-320 680l-319 -680h-66z" />
<glyph unicode="_" horiz-adv-x="1024" d="M0 -154h1024v-102h-1024v102z" />
<glyph unicode="`" d="M294 1491l29 47l485 -283l-27 -47z" />
<glyph unicode="a" horiz-adv-x="1380" d="M83 543q0 233 154 397q163 172 417 172q185 0 331 -100q130 -88 177 -213v286h58v-1085h-58v281q-155 -308 -508 -308q-256 0 -419 175q-152 164 -152 395zM140 541q2 -203 130 -349q145 -165 391 -165q169 0 299 95q124 91 178 243q30 80 30 169v21q0 102 -36 188 q-56 143 -184 229q-129 87 -294 87q-215 0 -363 -144q-151 -147 -151 -372v-2z" />
<glyph unicode="b" horiz-adv-x="1380" d="M159 0v1516h57v-717q147 307 508 313q254 0 417 -172q155 -164 155 -397q0 -231 -152 -395q-163 -175 -420 -175q-352 0 -508 308v-281h-57zM210 543q0 -215 142 -364q146 -152 366 -152q246 0 391 166q128 146 129 350v2q0 224 -151 370q-147 144 -363 144 q-219 0 -366 -147q-148 -147 -148 -369z" />
<glyph unicode="c" horiz-adv-x="1267" d="M83 541q0 242 162 406q164 165 409 165q177 0 321 -93q159 -103 220 -286h-63q-58 165 -208 254q-123 72 -261 72h-7q-206 -3 -366 -146q-150 -135 -150 -370q0 -226 154 -374q148 -142 360 -142q176 1 310 97q123 88 166 218h63q-57 -166 -201 -267q-145 -102 -327 -102 q-273 0 -436 181q-146 162 -146 387z" />
<glyph unicode="d" horiz-adv-x="1386" d="M83 543q0 233 154 397q163 172 417 172q185 0 331 -100q130 -88 177 -213v717h58v-1516h-58v281q-155 -308 -508 -308q-256 0 -419 175q-152 164 -152 395zM140 541q2 -203 130 -349q145 -165 391 -165q216 0 364 151q143 146 143 350v19q0 217 -147 364 q-147 148 -367 148q-215 0 -363 -144q-151 -147 -151 -372v-2z" />
<glyph unicode="e" horiz-adv-x="1267" d="M63 541q0 243 165 407t408 164q228 0 390 -145q179 -162 179 -392q0 -19 -1 -38h-1082q3 -244 179 -389q148 -121 329 -121h6q329 0 463 286h64q-71 -166 -219 -258q-137 -82 -310 -82q-280 0 -439 193q-132 161 -132 375zM124 590h1022q-9 195 -164 336 q-146 133 -325 133h-21q-203 0 -350 -132q-149 -134 -162 -337z" />
<glyph unicode="f" horiz-adv-x="538" d="M14 1032v53h178v109q0 336 340 348v-55q-118 -9 -172 -43q-110 -71 -110 -266v-93h282v-53h-282v-1032h-58v1032h-178z" />
<glyph unicode="g" horiz-adv-x="1382" d="M81 543q0 233 155 397q164 172 423 172q184 0 330 -100q130 -88 177 -213v286h58v-964q0 -299 -213 -463q-160 -121 -338 -121q-169 0 -313 86q-153 92 -222 248h66q70 -114 141 -168q142 -113 320 -113q199 0 346 142q155 151 155 379v176q-153 -314 -507 -314 q-261 0 -425 175q-153 163 -153 395zM138 541q2 -203 131 -349q147 -165 396 -165q219 0 364 151q144 150 144 369q0 178 -113 325q-143 187 -401 187q-220 0 -369 -144q-152 -147 -152 -372v-2z" />
<glyph unicode="h" horiz-adv-x="1310" d="M159 0v1516h57v-650q51 120 183 188q114 58 245 58h13q250 0 379 -147q118 -137 118 -392v-573h-57v573q0 230 -102 353q-114 133 -338 133q-205 -3 -322 -117q-119 -115 -119 -317v-625h-57z" />
<glyph unicode="i" horiz-adv-x="376" d="M159 0v1085h57v-1085h-57zM159 1329v187h57v-187h-57z" />
<glyph unicode="j" horiz-adv-x="448" d="M-28 -375l12 2q7 1 11 2q124 27 167 130q33 77 33 253v1073h58v-1073q0 -181 -32 -266q-55 -147 -220 -178q-5 -1 -14 -2l-15 -2v61zM195 1327v189h58v-189h-58z" />
<glyph unicode="k" horiz-adv-x="956" d="M159 0v1516h57v-906l584 475h78l-580 -477l625 -608h-78l-629 606v-606h-57z" />
<glyph unicode="l" horiz-adv-x="374" d="M159 0v1516h57v-1516h-57z" />
<glyph unicode="m" horiz-adv-x="1943" d="M159 0v1085h57v-202q115 229 365 229q208 0 319 -133q31 -33 74 -127q30 75 78 127q120 133 315 133q189 0 297 -108q125 -123 125 -396v-608h-57v608q0 248 -111 359q-89 92 -254 92q-184 0 -280 -125q-84 -109 -84 -326v-608h-58v608v28q0 190 -77 294 q-96 123 -287 129h-15q-158 0 -249 -119q-101 -114 -101 -322v-618h-57z" />
<glyph unicode="n" horiz-adv-x="1312" d="M159 0v1085h57q0 -145 -2 -235q103 262 437 262h18q485 -12 485 -528v-584h-57v584q0 225 -109 349q-111 126 -321 126h-10q-201 -3 -317 -112q-124 -115 -124 -322v-625h-57z" />
<glyph unicode="o" horiz-adv-x="1312" d="M83 543v2q0 241 164 404q163 163 407 163t408 -163t164 -406q0 -244 -164 -407q-163 -163 -408 -163q-244 0 -407 163q-164 163 -164 407zM140 541q0 -220 148 -367q147 -147 366 -147q220 0 367 147q147 148 147 369t-147 368q-147 148 -367 148q-219 0 -366 -148 q-148 -147 -148 -368v-2z" />
<glyph unicode="p" horiz-adv-x="1386" d="M159 -436v1521h57v-280q156 307 508 307q257 0 420 -175q152 -163 152 -394q0 -234 -155 -397q-163 -173 -417 -173q-184 0 -331 100q-129 89 -177 214v-723h-57zM210 541q0 -219 148 -367q147 -147 366 -147q216 0 363 143q151 148 151 373v2q-1 202 -129 348 q-146 166 -391 166q-215 0 -364 -150q-144 -150 -144 -368z" />
<glyph unicode="q" horiz-adv-x="1380" d="M83 543q0 231 152 394q163 175 419 175q350 0 508 -297v270h58v-1521h-58v712q-48 -118 -177 -204q-147 -99 -331 -99q-254 0 -417 173q-154 163 -154 397zM140 541q0 -224 151 -371q148 -143 363 -143q220 0 367 147q147 148 147 367v19q0 201 -143 347 q-148 152 -364 152q-246 0 -391 -166q-128 -146 -130 -350v-2z" />
<glyph unicode="r" horiz-adv-x="618" d="M159 0v1085h57v-206q103 215 383 233v-55h-16q-174 0 -270 -121q-97 -121 -97 -342v-594h-57z" />
<glyph unicode="s" horiz-adv-x="872" d="M105 301h57q0 -127 79 -202q76 -72 198 -72q118 0 192 79q68 73 68 176v9q-6 203 -262 260q-148 42 -206 88q-83 65 -87 192q0 131 87 208q81 73 208 73q124 -2 202 -72q84 -76 84 -211h-57q0 116 -71 177q-60 53 -151 53h-7q-109 0 -176 -65q-62 -60 -62 -150v-13 q5 -93 64 -144q51 -44 174 -79q150 -41 208 -82q101 -74 109 -227q1 -11 1 -21q0 -121 -86 -209q-93 -96 -232 -96q-142 0 -239 90q-96 87 -96 215q0 12 1 23z" />
<glyph unicode="t" horiz-adv-x="606" d="M14 1032v53h240v431h57v-431h278v-53h-278v-1032h-57v1032h-240z" />
<glyph unicode="u" horiz-adv-x="1312" d="M157 502v583h57v-583q0 -226 109 -349q111 -126 322 -126h10q200 3 317 111q123 115 123 323v624h57v-1085h-57q0 145 2 236q-102 -263 -437 -263h-18q-485 13 -485 529z" />
<glyph unicode="v" horiz-adv-x="985" d="M8 1085h63l420 -1019l420 1019h64l-447 -1085h-74z" />
<glyph unicode="w" horiz-adv-x="1552" d="M20 1085h63l369 -1007l301 860h45l303 -860l367 1007h63l-399 -1085h-65l-293 836l-289 -836h-66z" />
<glyph unicode="x" horiz-adv-x="833" d="M20 0l362 545l-362 540h74l323 -485l326 485h70l-361 -540l361 -545h-70l-326 489l-323 -489h-74z" />
<glyph unicode="y" horiz-adv-x="985" d="M22 1085h63l402 -1005l428 1005h68l-658 -1521h-65l192 438z" />
<glyph unicode="z" horiz-adv-x="833" d="M24 0v49l674 983h-637v53h711v-55l-674 -977h708v-53h-782z" />
<glyph unicode="{" horiz-adv-x="870" d="M235 457v57q74 19 120 126q46 108 46 267v383q0 135 35 191q39 61 133 61h135v-53h-111q-80 0 -104 -46q-23 -44 -23 -190v-379q0 -297 -165 -389q165 -73 165 -374v-375q0 -153 25 -198q23 -42 102 -42h111v-53h-135q-94 0 -133 63q-35 58 -35 195v375q0 298 -166 381z " />
<glyph unicode="|" d="M538 -512v2048h61v-2048h-61z" />
<glyph unicode="}" horiz-adv-x="870" d="M165 -504h111q79 0 102 42q25 45 25 198v375q0 301 165 374q-165 92 -165 389v379q0 146 -23 190q-24 46 -104 46h-111v53h135q94 0 133 -61q35 -56 35 -191v-383q0 -159 46 -267q46 -107 120 -126v-57q-166 -83 -166 -381v-375q0 -137 -35 -195q-39 -63 -133 -63h-135 v53z" />
<glyph unicode="~" horiz-adv-x="1228" d="M155 469q85 161 250 147q72 0 242 -75q159 -74 217 -74q84 0 168 127l38 -39q-79 -145 -202 -145q-74 0 -234 73q-164 76 -229 76q-131 8 -211 -127z" />
<glyph unicode="&#xa1;" horiz-adv-x="530" d="M235 -428v1176h61v-1176h-61zM235 922v165h61v-165h-61z" />
<glyph unicode="&#xa2;" d="M139 756q0 162 99 288q117 150 329 168v195h61v-197q263 -32 369 -249h-67q-105 192 -334 192q-178 0 -290 -118q-106 -111 -106 -273q0 -163 100 -276q109 -126 294 -126q242 0 336 183h69q-117 -227 -371 -242v-221h-61v221q-203 13 -324 162q-104 129 -104 293z" />
<glyph unicode="&#xa3;" d="M12 750v55h176q-81 107 -84 252q0 206 137 345q139 140 351 140q163 0 292 -96q138 -102 183 -279h-64q-40 142 -152 230q-114 90 -259 90q-187 -3 -303 -121q-117 -118 -123 -309q4 -142 102 -252h559v-55h-500q213 -163 213 -398q0 -155 -92 -297h189q210 0 309 92 q108 117 108 261q0 45 -14 102h64q12 -57 12 -100q0 -179 -123 -301q-124 -109 -367 -109h-553v55h304q102 164 102 295q0 213 -238 400h-229z" />
<glyph unicode="&#xa4;" d="M79 1143l43 43l158 -158q126 111 286 111q163 0 287 -109l156 156l45 -43l-156 -158q109 -122 109 -283q0 -162 -115 -286l158 -158l-43 -43l-156 156q-130 -105 -285 -105q-156 0 -284 105l-158 -156l-41 43l158 158q-115 127 -115 286q0 163 111 283zM188 700 q0 -152 114 -263q114 -109 264 -109q154 0 266 110q113 110 113 264q0 157 -113 267q-112 108 -266 108q-151 0 -264 -107q-114 -111 -114 -268v-2z" />
<glyph unicode="&#xa5;" d="M65 1516h66l434 -717l442 717h66l-418 -678h387v-54h-420l-27 -53v-168h447v-53h-447v-510h-61v510h-438v53h438v168l-29 53h-409v54h379z" />
<glyph unicode="&#xa6;" d="M538 -358v716h61v-716h-61zM538 666v716h61v-716h-61z" />
<glyph unicode="&#xa7;" horiz-adv-x="1173" d="M122 664q0 208 207 313q-94 89 -94 219q0 159 106 254q102 92 260 92q169 0 270 -89q103 -91 103 -253h-57q-25 281 -316 281q-138 0 -223 -77q-84 -77 -86 -202q4 -166 207 -260l307 -145q244 -113 244 -316q0 -205 -195 -317q144 -101 144 -260q0 -156 -114 -258 q-115 -103 -294 -103q-223 0 -337 121t-97 338h57q-23 -397 375 -397q157 0 252 79q96 81 100 220q-9 167 -213 260l-399 184q-207 112 -207 316zM179 657q3 -170 158 -245l461 -213q67 27 125 99q68 85 69 179v2q-2 163 -215 264l-405 195q-190 -91 -193 -281z" />
<glyph unicode="&#xa8;" d="M368 1245v238h59v-238h-59zM708 1245v238h59v-238h-59z" />
<glyph unicode="&#xa9;" horiz-adv-x="1638" d="M36 758q0 325 221 550q226 230 561 230h2q331 0 556 -228q223 -226 223 -552q0 -331 -228 -557q-226 -224 -553 -224q-330 0 -555 222q-227 224 -227 559zM93 758q0 -306 209 -517q210 -210 516 -210q304 0 513 209q210 210 210 518q0 302 -204 512q-208 215 -519 215h-2 q-310 0 -519 -215q-204 -211 -204 -512zM388 756q0 211 123 342q123 133 322 133q154 0 266 -86q112 -87 129 -221h-57q-26 129 -132 197q-89 57 -208 57q-166 0 -273 -110q-112 -116 -112 -310q0 -211 127 -324q105 -94 256 -94q104 0 191 50q147 83 169 282h57 q-13 -178 -138 -285q-117 -100 -281 -100q-177 0 -299 112q-140 129 -140 357z" />
<glyph unicode="&#xaa;" horiz-adv-x="899" d="M53 1186q0 148 107 252q108 104 264 104q213 0 313 -190v174h57v-682h-57v170q-93 -187 -313 -187q-163 0 -269 110q-102 104 -102 249zM110 1176q0 -110 82 -197q92 -98 234 -98q193 0 278 163q33 69 33 140q0 61 -27 125q-86 180 -286 180q-125 0 -215 -81 q-99 -89 -99 -230v-2z" />
<glyph unicode="&#xab;" horiz-adv-x="718" d="M94 565l233 398h72l-233 -398l233 -391h-72zM321 565l234 398h71l-233 -398l233 -391h-71z" />
<glyph unicode="&#xac;" horiz-adv-x="1228" d="M102 682v57h1024v-454h-57v397h-967z" />
<glyph unicode="&#xad;" horiz-adv-x="544" d="M0 537v59h545v-59h-545z" />
<glyph unicode="&#xae;" horiz-adv-x="1638" d="M36 758q0 325 221 550q226 230 561 230h2q331 0 556 -228q223 -226 223 -552q0 -331 -228 -557q-226 -224 -553 -224q-330 0 -555 222q-227 224 -227 559zM93 758q0 -306 209 -517q210 -210 516 -210q304 0 513 209q210 210 210 518q0 302 -204 512q-208 215 -519 215h-2 q-310 0 -519 -215q-204 -211 -204 -512zM480 299v907h379q314 0 314 -243q0 -161 -176 -224q146 -38 157 -207q14 -203 31 -233h-59q-14 21 -25 205q-7 113 -45 151q-55 56 -227 56h-291v-412h-58zM538 764h286q138 17 170 29q121 46 121 170q0 190 -266 190h-311v-389z" />
<glyph unicode="&#xaf;" d="M202 1321v61h729v-61h-729z" />
<glyph unicode="&#xb0;" horiz-adv-x="819" d="M116 1159q0 123 85 208t208 85t208 -85t85 -208v-2q0 -121 -85 -206t-208 -85t-208 85t-85 208zM173 1157q0 -97 68 -165q69 -68 168 -68t168 68q67 69 67 167q0 99 -67 167q-69 69 -168 69q-100 0 -168 -69q-68 -68 -68 -167v-2z" />
<glyph unicode="&#xb1;" horiz-adv-x="1228" d="M98 0v57h1032v-57h-1032zM98 575v58h487v403h58v-403h487v-58h-487v-403h-58v403h-487z" />
<glyph unicode="&#xb2;" horiz-adv-x="718" d="M73 606v47q62 65 190 199q125 130 189 197q113 124 113 213q0 90 -45 148q-55 71 -164 71q-97 0 -153 -67q-58 -68 -58 -185h-58q0 125 60 201q76 102 213 102q118 0 189 -72q73 -74 73 -198q0 -109 -131 -250q-113 -117 -338 -355h475v-51h-555z" />
<glyph unicode="&#xb3;" horiz-adv-x="718" d="M67 881h57q3 -123 82 -188q63 -52 146 -52q105 0 167 66q60 63 60 163q0 85 -56 150q-68 80 -188 80h-55v51h55q111 0 159 71q28 42 28 93q0 68 -43 115q-44 49 -117 51q-73 1 -119 -46q-46 -46 -49 -120h-57q5 108 80 167q62 50 145 50q86 0 150 -59q67 -63 67 -156 q0 -127 -117 -189q174 -71 174 -254q0 -124 -80 -204t-204 -80q-151 0 -234 117q-51 75 -51 174z" />
<glyph unicode="&#xb4;" d="M327 1255l485 283l29 -47l-487 -283z" />
<glyph unicode="&#xb5;" horiz-adv-x="1148" d="M159 -371v1456h57v-614q0 -237 80 -330q97 -114 273 -114q173 0 270 133q104 136 104 409v516h58v-1085h-58v244q-100 -271 -374 -271q-237 0 -353 185v-529h-57z" />
<glyph unicode="&#xb6;" horiz-adv-x="1148" d="M24 1106q0 203 142 311q128 99 337 99h504v-58h-131v-1716h-61v1712h-265v-1712h-61v960q-204 0 -328 97q-137 107 -137 307z" />
<glyph unicode="&#xb7;" horiz-adv-x="567" d="M253 440v166h61v-166h-61z" />
<glyph unicode="&#xb8;" d="M417 -285h55q19 -71 97 -71q91 0 94 100q-4 92 -94 92q-54 0 -84 -51l-45 10l94 205h59l-49 -117q12 6 27 6q68 0 109 -46q38 -42 38 -99q0 -61 -37 -105q-42 -51 -112 -51q-130 0 -152 127z" />
<glyph unicode="&#xb9;" horiz-adv-x="718" d="M151 1464v52h252v-910h-57v858h-195z" />
<glyph unicode="&#xba;" horiz-adv-x="899" d="M90 1178v2q0 153 102 257t254 105q158 0 262 -107q101 -103 101 -249q0 -157 -113 -261q-106 -98 -250 -98q-145 0 -250 103q-106 103 -106 248zM147 1178q0 -120 88 -208q88 -89 211 -89t212 85q92 89 94 220q-2 125 -87 213q-86 90 -215 90q-124 0 -211 -84 q-92 -88 -92 -225v-2z" />
<glyph unicode="&#xbb;" horiz-adv-x="718" d="M92 172l233 391l-233 398h72l233 -398l-233 -391h-72zM319 172l234 391l-234 398h72l233 -398l-233 -391h-72z" />
<glyph unicode="&#xbc;" horiz-adv-x="1433" d="M90 1464v52h252v-910h-57v858h-195zM293 0l674 1516h61l-676 -1516h-59zM735 174v43l457 692h67v-684h86v-51h-86v-174h-57v174h-467zM805 225h397v609z" />
<glyph unicode="&#xbd;" horiz-adv-x="1536" d="M90 1464v52h252v-910h-57v858h-195zM293 0l674 1516h61l-676 -1516h-59zM893 0v47q62 65 190 199q125 130 189 196q112 125 112 213q0 90 -44 148q-55 71 -165 71q-96 0 -153 -66q-58 -68 -58 -185h-57q0 110 47 184q76 119 226 119q118 0 189 -72q73 -74 73 -199 q0 -108 -131 -249q-113 -117 -338 -355h475v-51h-555z" />
<glyph unicode="&#xbe;" horiz-adv-x="1652" d="M81 881h57q3 -123 82 -188q63 -52 146 -52q105 0 167 66q60 63 60 163q0 85 -56 150q-68 80 -188 80h-55v51h55q111 0 159 71q28 42 28 93q0 68 -43 115q-44 49 -117 51q-73 1 -119 -46q-46 -46 -49 -120h-57q5 108 80 167q62 50 145 50q86 0 150 -59q67 -63 67 -156 q0 -127 -117 -189q174 -71 174 -254q0 -124 -80 -204t-204 -80q-159 0 -238 125q-47 70 -47 166zM513 0l674 1516h61l-675 -1516h-60zM955 174v43l457 692h68v-684h86v-51h-86v-174h-58v174h-467zM1025 225h397v609z" />
<glyph unicode="&#xbf;" horiz-adv-x="1097" d="M141 -25q0 159 244 394q153 151 153 376h62q-8 -264 -187 -434q-128 -133 -143 -153q-64 -85 -68 -187q0 -150 105 -255q107 -107 266 -107q127 0 228 68q122 83 147 235q6 31 6 61h61q0 -18 -4 -55q-27 -192 -177 -293q-118 -80 -259 -80q-176 0 -302 119 q-132 125 -132 311zM540 920v165h60v-165h-60z" />
<glyph unicode="&#xc0;" horiz-adv-x="1406" d="M14 0l649 1516h80l649 -1516h-65l-228 528h-792l-227 -528h-66zM333 584h740l-371 874zM420 1880l28 47l486 -282l-27 -48z" />
<glyph unicode="&#xc1;" horiz-adv-x="1406" d="M14 0l649 1516h80l649 -1516h-65l-228 528h-792l-227 -528h-66zM333 584h740l-371 874zM473 1645l485 282l29 -47l-488 -283z" />
<glyph unicode="&#xc2;" horiz-adv-x="1406" d="M14 0l649 1516h80l649 -1516h-65l-228 528h-792l-227 -528h-66zM303 1634l370 240h58l373 -240h-93l-309 195l-307 -195h-92zM333 584h740l-371 874z" />
<glyph unicode="&#xc3;" horiz-adv-x="1406" d="M14 0l649 1516h80l649 -1516h-65l-228 528h-792l-227 -528h-66zM329 1731q71 81 195 81q90 0 197 -40q90 -35 161 -35q98 0 154 65l41 -41q-71 -82 -195 -82q-90 0 -196 41q-91 35 -162 35q-98 0 -154 -65zM333 584h740l-371 874z" />
<glyph unicode="&#xc4;" horiz-adv-x="1406" d="M14 0l649 1516h80l649 -1516h-65l-228 528h-792l-227 -528h-66zM333 584h740l-371 874zM503 1634v238h60v-238h-60zM843 1634v238h60v-238h-60z" />
<glyph unicode="&#xc5;" horiz-adv-x="1406" d="M14 0l649 1516h80l649 -1516h-65l-228 528h-792l-227 -528h-66zM333 584h740l-371 874zM516 1743q0 77 55 132q55 54 131 54h2q77 0 132 -55q55 -54 55 -131t-55 -132q-56 -55 -134 -55q-77 0 -131 55q-55 55 -55 132zM573 1745q0 -53 38 -91t91 -38q55 0 93 38t38 91 q0 54 -38 92q-38 39 -93 39h-2q-52 0 -90 -39q-37 -38 -37 -92z" />
<glyph unicode="&#xc6;" horiz-adv-x="1933" d="M-16 0l1049 1516h749v-56h-647v-669h647v-56h-647v-680h647v-55h-708v541h-646l-374 -541h-70zM473 596h601v883z" />
<glyph unicode="&#xc7;" horiz-adv-x="1609" d="M83 758q0 337 230 562q227 222 556 222q431 -3 664 -364h-72q-220 307 -592 309q-303 0 -513 -207q-212 -210 -212 -522t212 -522q210 -207 513 -207q374 0 592 301h70q-86 -146 -251 -244q-192 -113 -421 -113l-41 -90q25 6 31 6q68 0 110 -46q37 -42 37 -99 q0 -61 -37 -105q-42 -51 -112 -51q-130 0 -152 127h56q18 -71 96 -71q91 0 94 100q-3 92 -94 92q-54 0 -84 -51l-45 10l84 182q-306 24 -510 240q-209 221 -209 541z" />
<glyph unicode="&#xc8;" horiz-adv-x="1120" d="M157 0v1516h831v-56h-770v-669h770v-56h-770v-680h770v-55h-831zM286 1890l29 47l485 -282l-27 -47z" />
<glyph unicode="&#xc9;" horiz-adv-x="1120" d="M157 0v1516h831v-56h-770v-669h770v-56h-770v-680h770v-55h-831zM319 1655l485 282l29 -47l-488 -282z" />
<glyph unicode="&#xca;" horiz-adv-x="1120" d="M157 0v1516h831v-56h-770v-669h770v-56h-770v-680h770v-55h-831zM159 1645l371 239h57l373 -239h-92l-310 194l-307 -194h-92z" />
<glyph unicode="&#xcb;" horiz-adv-x="1120" d="M157 0v1516h831v-56h-770v-669h770v-56h-770v-680h770v-55h-831zM360 1645v237h59v-237h-59zM700 1645v237h59v-237h-59z" />
<glyph unicode="&#xcc;" horiz-adv-x="378" d="M-124 1880l29 47l485 -282l-27 -48zM159 0v1516h61v-1516h-61z" />
<glyph unicode="&#xcd;" horiz-adv-x="378" d="M-10 1645l485 282l29 -47l-487 -283zM158 0v1516h61v-1516h-61z" />
<glyph unicode="&#xce;" horiz-adv-x="378" d="M-210 1624l371 240h57l373 -240h-92l-310 195l-307 -195h-92zM159 0v1516h61v-1516h-61z" />
<glyph unicode="&#xcf;" horiz-adv-x="378" d="M-10 1634v238h59v-238h-59zM158 0v1516h61v-1516h-61zM330 1634v238h59v-238h-59z" />
<glyph unicode="&#xd0;" horiz-adv-x="1435" d="M0 735v56h158v725h428q360 0 561 -201q203 -200 203 -557t-203 -558q-203 -200 -561 -200h-428v735h-158zM219 55h367q329 0 515 185q187 185 187 514q0 332 -184 520q-186 186 -518 186h-367v-669h514v-56h-514v-680z" />
<glyph unicode="&#xd1;" horiz-adv-x="1511" d="M157 0v1516h92l1043 -1434v1434h61v-1516h-78l-1057 1454v-1454h-61zM382 1720q71 82 195 82q90 0 196 -41q91 -35 162 -35q98 0 154 66l41 -41q-71 -82 -195 -82q-90 0 -196 41q-91 35 -162 35q-98 0 -154 -66z" />
<glyph unicode="&#xd2;" horiz-adv-x="1742" d="M83 758v2q0 336 230 561q227 221 556 221q330 0 556 -222q231 -225 231 -562q0 -338 -231 -563q-226 -222 -556 -222q-329 0 -556 222q-230 225 -230 563zM144 756q0 -311 212 -520q210 -207 513 -207q304 0 513 207q212 210 212 522t-212 522q-209 207 -513 207 q-303 0 -513 -207q-212 -210 -212 -522v-2zM597 1890l29 47l485 -282l-27 -47z" />
<glyph unicode="&#xd3;" horiz-adv-x="1742" d="M83 758v2q0 336 230 561q227 221 556 221q330 0 556 -222q231 -225 231 -562q0 -338 -231 -563q-226 -222 -556 -222q-329 0 -556 222q-230 225 -230 563zM144 756q0 -311 212 -520q210 -207 513 -207q304 0 513 207q212 210 212 522t-212 522q-209 207 -513 207 q-303 0 -513 -207q-212 -210 -212 -522v-2zM630 1655l485 282l29 -47l-488 -282z" />
<glyph unicode="&#xd4;" horiz-adv-x="1742" d="M83 758v2q0 336 230 561q227 221 556 221q330 0 556 -222q231 -225 231 -562q0 -338 -231 -563q-226 -222 -556 -222q-329 0 -556 222q-230 225 -230 563zM144 756q0 -311 212 -520q210 -207 513 -207q304 0 513 207q212 210 212 522t-212 522q-209 207 -513 207 q-303 0 -513 -207q-212 -210 -212 -522v-2zM470 1634l371 240h57l373 -240h-92l-310 195l-307 -195h-92z" />
<glyph unicode="&#xd5;" horiz-adv-x="1742" d="M83 758v2q0 336 230 561q227 221 556 221q330 0 556 -222q231 -225 231 -562q0 -338 -231 -563q-226 -222 -556 -222q-329 0 -556 222q-230 225 -230 563zM144 756q0 -311 212 -520q210 -207 513 -207q304 0 513 207q212 210 212 522t-212 522q-209 207 -513 207 q-303 0 -513 -207q-212 -210 -212 -522v-2zM497 1720q70 82 194 82q90 0 197 -41q90 -35 162 -35q98 0 153 66l41 -41q-70 -82 -194 -82q-90 0 -197 41q-90 35 -162 35q-98 0 -153 -66z" />
<glyph unicode="&#xd6;" horiz-adv-x="1742" d="M83 758v2q0 336 230 561q227 221 556 221q330 0 556 -222q231 -225 231 -562q0 -338 -231 -563q-226 -222 -556 -222q-329 0 -556 222q-230 225 -230 563zM144 756q0 -311 212 -520q210 -207 513 -207q304 0 513 207q212 210 212 522t-212 522q-209 207 -513 207 q-303 0 -513 -207q-212 -210 -212 -522v-2zM671 1645v237h59v-237h-59zM1011 1645v237h59v-237h-59z" />
<glyph unicode="&#xd7;" horiz-adv-x="1228" d="M102 43l469 471l-469 463l41 45l471 -467l471 467l41 -45l-469 -463l469 -471l-41 -43l-471 473l-471 -473z" />
<glyph unicode="&#xd8;" horiz-adv-x="1742" d="M83 758q0 337 230 562q227 222 556 222q251 0 449 -133l151 209h76l-178 -246q289 -232 289 -614q0 -338 -231 -563q-226 -222 -556 -222q-241 0 -430 125l-147 -200h-76l172 233q-305 231 -305 627zM144 758q0 -368 279 -580l858 1182q-181 127 -412 127 q-303 0 -513 -207q-212 -210 -212 -522zM474 145q177 -116 395 -116q304 0 513 207q212 210 212 522q0 353 -260 569z" />
<glyph unicode="&#xd9;" horiz-adv-x="1239" d="M160 532v984h61v-984q0 -241 95 -364q106 -139 311 -139q199 0 305 139q94 123 94 364v984h62v-984q5 -335 -183 -466q-125 -93 -282 -93q-156 0 -281 93q-187 131 -182 466zM289 1860l29 47l485 -283l-27 -47z" />
<glyph unicode="&#xda;" horiz-adv-x="1239" d="M160 532v984h61v-984q0 -241 95 -364q106 -139 311 -139q199 0 305 139q94 123 94 364v984h62v-984q5 -335 -183 -466q-125 -93 -282 -93q-156 0 -281 93q-187 131 -182 466zM383 1624l486 283l28 -47l-487 -283z" />
<glyph unicode="&#xdb;" horiz-adv-x="1239" d="M160 532v984h61v-984q0 -241 95 -364q106 -139 311 -139q199 0 305 139q94 123 94 364v984h62v-984q5 -335 -183 -466q-125 -93 -282 -93q-156 0 -281 93q-187 131 -182 466zM223 1614l371 239h58l372 -239h-92l-309 194l-307 -194h-93z" />
<glyph unicode="&#xdc;" horiz-adv-x="1239" d="M160 532v984h61v-984q0 -241 95 -364q106 -139 311 -139q199 0 305 139q94 123 94 364v984h62v-984q5 -335 -183 -466q-125 -93 -282 -93q-156 0 -281 93q-187 131 -182 466zM424 1614v237h60v-237h-60zM764 1614v237h60v-237h-60z" />
<glyph unicode="&#xdd;" horiz-adv-x="1134" d="M30 1516h68l469 -924l467 924h69l-506 -994v-522h-61v522zM388 1624l486 283l28 -47l-487 -283z" />
<glyph unicode="&#xde;" horiz-adv-x="1046" d="M137 0v1516h61v-320h291q256 0 379 -90q154 -112 154 -340t-154 -340q-123 -90 -379 -90h-291v-336h-61zM198 391h293q231 0 344 84q125 97 125 289q0 196 -125 293q-113 84 -344 84h-293v-750z" />
<glyph unicode="&#xdf;" horiz-adv-x="1144" d="M155 0v969q0 302 80 411q105 162 311 162q185 0 295 -112q107 -111 107 -291q0 -255 -228 -369q163 -22 256 -143q82 -107 82 -248q0 -180 -128 -294q-125 -112 -314 -112q-152 2 -256 83q-128 101 -148 304v-360h-57zM212 391h54q8 -196 132 -291q93 -71 224 -73 q164 0 271 95q108 97 108 247q0 175 -129 282q-110 78 -309 80h-58v53h56q130 0 227 100q102 104 102 255q0 165 -96 259q-92 91 -246 91q-175 0 -260 -129q-76 -112 -76 -391v-578z" />
<glyph unicode="&#xe0;" horiz-adv-x="1380" d="M83 543q0 233 154 397q163 172 417 172q185 0 331 -100q130 -88 177 -213v286h58v-1085h-58v281q-155 -308 -508 -308q-256 0 -419 175q-152 164 -152 395zM140 541q2 -203 130 -349q145 -165 391 -165q169 0 299 95q124 91 178 243q34 89 30 190q0 102 -36 188 q-56 143 -184 229q-129 87 -294 87q-215 0 -363 -144q-151 -147 -151 -372v-2zM417 1491l28 47l486 -283l-27 -47z" />
<glyph unicode="&#xe1;" horiz-adv-x="1380" d="M83 543q0 233 154 397q163 172 417 172q185 0 331 -100q130 -88 177 -213v286h58v-1085h-58v281q-155 -308 -508 -308q-256 0 -419 175q-152 164 -152 395zM140 541q2 -203 130 -349q145 -165 391 -165q169 0 299 95q124 91 178 243q34 89 30 190q0 102 -36 188 q-56 143 -184 229q-129 87 -294 87q-215 0 -363 -144q-151 -147 -151 -372v-2zM439 1255l486 283l28 -47l-487 -283z" />
<glyph unicode="&#xe2;" horiz-adv-x="1380" d="M83 543q0 233 154 397q163 172 417 172q185 0 331 -100q130 -88 177 -213v286h58v-1085h-58v281q-155 -308 -508 -308q-256 0 -419 175q-152 164 -152 395zM140 541q2 -203 130 -349q145 -165 391 -165q169 0 299 95q124 91 178 243q34 89 30 190q0 102 -36 188 q-56 143 -184 229q-129 87 -294 87q-215 0 -363 -144q-151 -147 -151 -372v-2zM290 1245l371 240h57l373 -240h-93l-309 195l-307 -195h-92z" />
<glyph unicode="&#xe3;" horiz-adv-x="1380" d="M83 543q0 233 154 397q163 172 417 172q185 0 331 -100q130 -88 177 -213v286h58v-1085h-58v281q-155 -308 -508 -308q-256 0 -419 175q-152 164 -152 395zM140 541q2 -203 130 -349q145 -165 391 -165q169 0 299 95q124 91 178 243q34 89 30 190q0 102 -36 188 q-56 143 -184 229q-129 87 -294 87q-215 0 -363 -144q-151 -147 -151 -372v-2zM316 1331q71 82 195 82q90 0 197 -41q90 -35 161 -35q98 0 154 66l41 -41q-71 -82 -195 -82q-90 0 -196 41q-91 35 -162 35q-98 0 -154 -66z" />
<glyph unicode="&#xe4;" horiz-adv-x="1380" d="M83 543q0 233 154 397q163 172 417 172q185 0 331 -100q130 -88 177 -213v286h58v-1085h-58v281q-155 -308 -508 -308q-256 0 -419 175q-152 164 -152 395zM140 541q2 -203 130 -349q145 -165 391 -165q169 0 299 95q124 91 178 243q34 89 30 190q0 102 -36 188 q-56 143 -184 229q-129 87 -294 87q-215 0 -363 -144q-151 -147 -151 -372v-2zM470 1245v238h59v-238h-59zM810 1245v238h59v-238h-59z" />
<glyph unicode="&#xe5;" horiz-adv-x="1380" d="M83 543q0 233 154 397q163 172 417 172q185 0 331 -100q130 -88 177 -213v286h58v-1085h-58v281q-155 -308 -508 -308q-256 0 -419 175q-152 164 -152 395zM140 541q2 -203 130 -349q145 -165 391 -165q169 0 299 95q124 91 178 243q34 89 30 190q0 102 -36 188 q-56 143 -184 229q-129 87 -294 87q-215 0 -363 -144q-151 -147 -151 -372v-2zM482 1374q0 78 56 133q55 54 131 54h2q77 0 131 -55q55 -55 55 -132t-55 -131q-55 -55 -133 -55q-77 0 -132 55q-55 54 -55 131zM540 1376q0 -52 37 -90q38 -39 92 -39q55 0 93 39q38 38 38 90 q0 54 -38 93q-38 38 -93 38h-2q-53 0 -90 -38q-37 -39 -37 -93z" />
<glyph unicode="&#xe6;" horiz-adv-x="2363" d="M83 541q0 244 163 407q163 164 404 164q356 0 510 -344v317h58v-315q142 342 491 342q257 0 416 -176q150 -163 153 -399h-1060q24 -277 211 -413q134 -97 296 -97q288 0 453 286h68q-65 -144 -199 -238q-145 -102 -315 -102q-379 0 -514 359v-332h-58v332 q-39 -149 -183 -253q-146 -106 -323 -106q-280 0 -439 195q-132 162 -132 373zM140 541q0 -220 148 -367q147 -147 368 -147q207 0 358 156q148 153 148 360q0 209 -147 360q-152 156 -359 156q-221 0 -368 -148q-148 -147 -148 -368v-2zM1220 590h995q-36 227 -173 350 q-132 119 -329 119q-219 0 -364 -168q-97 -109 -129 -301z" />
<glyph unicode="&#xe7;" horiz-adv-x="1267" d="M83 543q2 242 164 405q163 164 407 164q177 0 321 -93q159 -103 220 -286h-63q-58 165 -208 254q-126 74 -268 72q-206 -3 -366 -146q-150 -135 -150 -370q0 -226 154 -374q148 -142 360 -142q176 1 310 97q123 88 166 218h63q-57 -167 -201 -266q-146 -100 -342 -103 l-41 -90q25 6 31 6q68 0 110 -46q38 -42 38 -99q0 -61 -38 -105q-42 -51 -112 -51q-130 0 -152 127h56q18 -71 96 -71q91 0 94 100q-3 92 -94 92q-54 0 -84 -51l-45 10l84 185q-220 18 -363 171q-147 158 -147 392z" />
<glyph unicode="&#xe8;" horiz-adv-x="1267" d="M63 541q0 243 165 407t408 164q228 0 390 -145q194 -175 178 -430h-1082q3 -244 179 -389q150 -123 335 -121q329 0 463 286h64q-71 -166 -219 -258q-137 -82 -310 -82q-280 0 -439 193q-132 161 -132 375zM124 590h1022q-9 195 -164 336q-154 141 -346 133 q-203 0 -350 -132q-149 -134 -162 -337zM360 1491l29 47l485 -283l-27 -47z" />
<glyph unicode="&#xe9;" horiz-adv-x="1267" d="M63 541q0 243 165 407t408 164q228 0 390 -145q194 -175 178 -430h-1082q3 -244 179 -389q150 -123 335 -121q329 0 463 286h64q-71 -166 -219 -258q-137 -82 -310 -82q-280 0 -439 193q-132 161 -132 375zM124 590h1022q-9 195 -164 336q-154 141 -346 133 q-203 0 -350 -132q-149 -134 -162 -337zM382 1255l486 283l29 -47l-488 -283z" />
<glyph unicode="&#xea;" horiz-adv-x="1267" d="M63 541q0 243 165 407t408 164q228 0 390 -145q194 -175 178 -430h-1082q3 -244 179 -389q150 -123 335 -121q329 0 463 286h64q-71 -166 -219 -258q-137 -82 -310 -82q-280 0 -439 193q-132 161 -132 375zM124 590h1022q-9 195 -164 336q-154 141 -346 133 q-203 0 -350 -132q-149 -134 -162 -337zM233 1245l371 240h57l373 -240h-92l-310 195l-307 -195h-92z" />
<glyph unicode="&#xeb;" horiz-adv-x="1267" d="M63 541q0 243 165 407t408 164q228 0 390 -145q194 -175 178 -430h-1082q3 -244 179 -389q150 -123 335 -121q329 0 463 286h64q-71 -166 -219 -258q-137 -82 -310 -82q-280 0 -439 193q-132 161 -132 375zM124 590h1022q-9 195 -164 336q-154 141 -346 133 q-203 0 -350 -132q-149 -134 -162 -337zM423 1245v238h60v-238h-60zM763 1245v238h60v-238h-60z" />
<glyph unicode="&#xec;" horiz-adv-x="376" d="M-126 1491l29 47l485 -283l-27 -47zM161 0v1085h57v-1085h-57z" />
<glyph unicode="&#xed;" horiz-adv-x="376" d="M-12 1255l485 283l29 -47l-487 -283zM160 0v1085h57v-1085h-57z" />
<glyph unicode="&#xee;" horiz-adv-x="376" d="M-210 1245l371 240h57l373 -240h-92l-310 195l-307 -195h-92zM161 0v1085h57v-1085h-57z" />
<glyph unicode="&#xef;" horiz-adv-x="376" d="M-10 1245v238h59v-238h-59zM160 0v1085h57v-1085h-57zM330 1245v238h59v-238h-59z" />
<glyph unicode="&#xf0;" horiz-adv-x="1312" d="M83 541q5 254 167 412q159 154 406 159q255 0 406 -180q-37 72 -109 143q-132 138 -311 230l-459 -168v61l392 143q-162 80 -349 144l70 31q191 -65 348 -150l410 150v-62l-340 -125q294 -169 420 -395q94 -171 94 -389q0 -261 -182 -422q-164 -145 -392 -150 q-232 0 -392 144q-176 158 -179 424zM140 541q-1 -220 146 -367t368 -147q223 0 371 149q145 148 145 369q0 213 -153 364q-152 150 -359 150q-224 -2 -371 -149q-148 -147 -147 -367v-2z" />
<glyph unicode="&#xf1;" horiz-adv-x="1312" d="M159 0v1085h57q0 -145 -2 -235q106 269 455 262q485 -12 485 -528v-584h-57v584q0 225 -109 349q-114 129 -331 126q-201 -3 -317 -112q-124 -115 -124 -322v-625h-57zM282 1331q71 82 194 82q91 0 197 -41q91 -35 162 -35q98 0 153 66l41 -41q-70 -82 -194 -82 q-90 0 -197 41q-90 35 -162 35q-97 0 -153 -66z" />
<glyph unicode="&#xf2;" horiz-adv-x="1312" d="M83 543v2q0 241 164 404q163 163 407 163t408 -163t164 -406q0 -244 -164 -407q-163 -163 -408 -163q-244 0 -407 163q-164 163 -164 407zM140 541q0 -220 148 -367q147 -147 366 -147q220 0 367 147q147 148 147 369t-147 368q-147 148 -367 148q-219 0 -366 -148 q-148 -147 -148 -368v-2zM382 1491l29 47l485 -283l-27 -47z" />
<glyph unicode="&#xf3;" horiz-adv-x="1312" d="M83 543v2q0 241 164 404q163 163 407 163t408 -163t164 -406q0 -244 -164 -407q-163 -163 -408 -163q-244 0 -407 163q-164 163 -164 407zM140 541q0 -220 148 -367q147 -147 366 -147q220 0 367 147q147 148 147 369t-147 368q-147 148 -367 148q-219 0 -366 -148 q-148 -147 -148 -368v-2zM405 1255l485 283l29 -47l-488 -283z" />
<glyph unicode="&#xf4;" horiz-adv-x="1312" d="M83 543v2q0 241 164 404q163 163 407 163t408 -163t164 -406q0 -244 -164 -407q-163 -163 -408 -163q-244 0 -407 163q-164 163 -164 407zM140 541q0 -220 148 -367q147 -147 366 -147q220 0 367 147q147 148 147 369t-147 368q-147 148 -367 148q-219 0 -366 -148 q-148 -147 -148 -368v-2zM255 1245l371 240h57l373 -240h-92l-310 195l-307 -195h-92z" />
<glyph unicode="&#xf5;" horiz-adv-x="1312" d="M83 543v2q0 241 164 404q163 163 407 163t408 -163t164 -406q0 -244 -164 -407q-163 -163 -408 -163q-244 0 -407 163q-164 163 -164 407zM140 541q0 -220 148 -367q147 -147 366 -147q220 0 367 147q147 148 147 369t-147 368q-147 148 -367 148q-219 0 -366 -148 q-148 -147 -148 -368v-2zM282 1331q70 82 194 82q90 0 197 -41q90 -35 162 -35q98 0 153 66l41 -41q-70 -82 -194 -82q-90 0 -197 41q-91 35 -162 35q-98 0 -153 -66z" />
<glyph unicode="&#xf6;" horiz-adv-x="1312" d="M83 543v2q0 241 164 404q163 163 407 163t408 -163t164 -406q0 -244 -164 -407q-163 -163 -408 -163q-244 0 -407 163q-164 163 -164 407zM140 541q0 -220 148 -367q147 -147 366 -147q220 0 367 147q147 148 147 369t-147 368q-147 148 -367 148q-219 0 -366 -148 q-148 -147 -148 -368v-2zM456 1245v238h59v-238h-59zM796 1245v238h59v-238h-59z" />
<glyph unicode="&#xf7;" horiz-adv-x="1228" d="M102 483v58h1024v-58h-1024zM583 0v166h62v-166h-62zM583 858v166h62v-166h-62z" />
<glyph unicode="&#xf8;" horiz-adv-x="1312" d="M83 543q0 243 164 406q163 163 407 163q179 0 314 -90l96 135h70l-119 -166q211 -171 211 -448q0 -244 -164 -407q-163 -163 -408 -163q-175 0 -313 90l-98 -135h-70l123 168q-213 163 -213 447zM140 543q0 -254 187 -404l608 838q-123 82 -281 82q-219 0 -366 -148 q-148 -147 -148 -368zM372 106q128 -79 282 -79q220 0 367 147q147 148 147 369q0 253 -186 403z" />
<glyph unicode="&#xf9;" horiz-adv-x="1312" d="M157 502v583h57v-583q0 -226 109 -349q114 -129 332 -126q200 3 317 111q123 115 123 323v624h57v-1085h-57q0 145 2 236q-105 -270 -455 -263q-485 13 -485 529zM321 1491l29 47l485 -283l-27 -47z" />
<glyph unicode="&#xfa;" horiz-adv-x="1312" d="M157 502v583h57v-583q0 -226 109 -349q114 -129 332 -126q200 3 317 111q123 115 123 323v624h57v-1085h-57q0 145 2 236q-105 -270 -455 -263q-485 13 -485 529zM415 1255l485 283l29 -47l-487 -283z" />
<glyph unicode="&#xfb;" horiz-adv-x="1312" d="M157 502v583h57v-583q0 -226 109 -349q114 -129 332 -126q200 3 317 111q123 115 123 323v624h57v-1085h-57q0 145 2 236q-105 -270 -455 -263q-485 13 -485 529zM255 1245l371 240h57l373 -240h-92l-309 195l-308 -195h-92z" />
<glyph unicode="&#xfc;" horiz-adv-x="1312" d="M157 502v583h57v-583q0 -226 109 -349q114 -129 332 -126q200 3 317 111q123 115 123 323v624h57v-1085h-57q0 145 2 236q-105 -270 -455 -263q-485 13 -485 529zM456 1245v238h59v-238h-59zM796 1245v238h59v-238h-59z" />
<glyph unicode="&#xfd;" horiz-adv-x="985" d="M22 1085h63l402 -1005l428 1005h68l-658 -1521h-65l192 438zM313 1255l485 283l29 -47l-488 -283z" />
<glyph unicode="&#xfe;" horiz-adv-x="1394" d="M159 -436v1952h57v-723q87 179 264 261q124 58 254 58q245 0 409 -163q165 -164 165 -406q0 -244 -165 -407q-164 -163 -409 -163q-170 0 -312 90q-134 85 -206 224v-723h-57zM216 537q0 -200 148 -351q153 -159 373 -159q221 0 367 147q147 147 147 369v2 q0 220 -147 367t-367 147q-211 0 -361 -144q-160 -149 -160 -378z" />
<glyph unicode="&#xff;" horiz-adv-x="985" d="M22 1085h63l402 -1005l428 1005h68l-658 -1521h-65l192 438zM292 1245v238h60v-238h-60zM632 1245v238h60v-238h-60z" />
<glyph unicode="&#x152;" horiz-adv-x="2412" d="M83 758q0 342 226 566q220 218 546 218q258 0 459 -139q198 -137 266 -356v469h707v-56h-645v-669h645v-56h-645v-680h645v-55h-707v469q-66 -218 -264 -356q-200 -140 -453 -140q-331 0 -553 219q-227 223 -227 566zM144 756q0 -316 208 -524q204 -203 507 -203 q306 0 514 213q207 212 207 518q-8 310 -208 516q-204 211 -513 211q-303 0 -507 -204q-208 -208 -208 -525v-2z" />
<glyph unicode="&#x153;" horiz-adv-x="2367" d="M83 541q0 244 164 407q163 164 407 164q189 0 334 -110q140 -106 201 -287q38 136 146 241q153 148 386 148q241 0 404 -170q160 -166 160 -395h-1061q11 -244 170 -386q141 -126 336 -126q146 0 266 71q132 79 182 219h64q-74 -172 -203 -258q-146 -86 -309 -86 q-198 0 -342 111q-136 104 -195 281q-155 -392 -539 -392q-304 0 -459 221q-112 159 -112 347zM140 541q0 -220 148 -367q147 -147 366 -147q216 0 366 159q142 152 142 353q0 198 -137 353q-149 167 -371 167q-219 0 -366 -148q-148 -147 -148 -368v-2zM1226 592h991 q-8 156 -127 292q-145 167 -371 167q-192 0 -331 -129t-162 -330z" />
<glyph unicode="&#x178;" horiz-adv-x="1134" d="M30 1516h68l469 -924l467 924h69l-506 -994v-522h-61v522zM368 1614v237h59v-237h-59zM708 1614v237h59v-237h-59z" />
<glyph unicode="&#x2c6;" d="M167 1245l371 240h57l373 -240h-92l-310 195l-307 -195h-92z" />
<glyph unicode="&#x2dc;" d="M194 1331q71 82 195 82q90 0 196 -41q91 -35 162 -35q98 0 154 66l41 -41q-71 -82 -195 -82q-90 0 -197 41q-90 35 -161 35q-98 0 -154 -66z" />
<glyph unicode="&#x2000;" horiz-adv-x="968" />
<glyph unicode="&#x2001;" horiz-adv-x="1937" />
<glyph unicode="&#x2002;" horiz-adv-x="968" />
<glyph unicode="&#x2003;" horiz-adv-x="1937" />
<glyph unicode="&#x2004;" horiz-adv-x="645" />
<glyph unicode="&#x2005;" horiz-adv-x="484" />
<glyph unicode="&#x2006;" horiz-adv-x="322" />
<glyph unicode="&#x2007;" horiz-adv-x="322" />
<glyph unicode="&#x2008;" horiz-adv-x="242" />
<glyph unicode="&#x2009;" horiz-adv-x="387" />
<glyph unicode="&#x200a;" horiz-adv-x="107" />
<glyph unicode="&#x2010;" horiz-adv-x="544" d="M0 537v59h545v-59h-545z" />
<glyph unicode="&#x2011;" horiz-adv-x="544" d="M0 537v59h545v-59h-545z" />
<glyph unicode="&#x2012;" horiz-adv-x="544" d="M0 537v59h545v-59h-545z" />
<glyph unicode="&#x2013;" horiz-adv-x="1024" d="M71 537v59h881v-59h-881z" />
<glyph unicode="&#x2014;" horiz-adv-x="2048" d="M71 537v59h1905v-59h-1905z" />
<glyph unicode="&#x2018;" horiz-adv-x="567" d="M184 1516h68l131 -316h-68z" />
<glyph unicode="&#x2019;" horiz-adv-x="567" d="M184 1200l131 316h68l-131 -316h-68z" />
<glyph unicode="&#x201a;" horiz-adv-x="567" d="M184 -147l131 315h68l-131 -315h-68z" />
<glyph unicode="&#x201c;" horiz-adv-x="757" d="M188 1516h68l131 -316h-68zM370 1516h68l131 -316h-68z" />
<glyph unicode="&#x201d;" horiz-adv-x="757" d="M188 1200l131 316h68l-131 -316h-68zM370 1200l131 316h68l-131 -316h-68z" />
<glyph unicode="&#x201e;" horiz-adv-x="757" d="M188 -147l131 315h68l-131 -315h-68zM370 -147l131 315h68l-131 -315h-68z" />
<glyph unicode="&#x2022;" horiz-adv-x="768" d="M204 764q0 73 52 123q52 51 128 51h2q74 0 125 -51t51 -123q0 -73 -51 -123q-52 -51 -127 -51q-76 0 -128 51q-52 50 -52 123z" />
<glyph unicode="&#x2026;" horiz-adv-x="2048" d="M311 0v168h61v-168h-61zM993 0v168h61v-168h-61zM1675 0v168h61v-168h-61z" />
<glyph unicode="&#x202f;" horiz-adv-x="387" />
<glyph unicode="&#x2039;" horiz-adv-x="507" d="M102 563l233 398h72l-233 -398l233 -391h-72z" />
<glyph unicode="&#x203a;" horiz-adv-x="507" d="M100 172l233 391l-233 398h72l233 -398l-233 -391h-72z" />
<glyph unicode="&#x205f;" horiz-adv-x="484" />
<glyph unicode="&#x20ac;" d="M55 608l10 54h156v77q0 95 2 144h-168l10 53h160q15 278 115 430q116 176 350 176q186 0 293 -106q88 -92 102 -238h-59q-17 130 -92 203q-90 86 -246 86q-199 0 -299 -156q-87 -134 -103 -395h623l-10 -53h-615q-2 -43 -2 -123l2 -98h574l-10 -54h-562q17 -322 121 -456 q94 -123 283 -123q168 0 258 90q64 63 88 192h61q-25 -153 -112 -237q-104 -101 -297 -101q-216 0 -332 146t-133 489h-168z" />
<glyph unicode="&#x2122;" horiz-adv-x="2027" d="M18 1466v50h565v-50h-256v-860h-55v860h-254zM712 606v910h76l426 -824l428 824h74v-910h-56v830l-430 -830h-32l-430 828v-828h-56z" />
<glyph unicode="&#xe000;" horiz-adv-x="1085" d="M0 0v1085h1085v-1085h-1085z" />
<glyph unicode="&#xfb01;" horiz-adv-x="804" d="M14 1032v53h178v109q0 336 340 348v-55q-118 -9 -172 -43q-110 -71 -110 -266v-93h395v-1085h-58v1032h-337v-1032h-58v1032h-178zM587 1329v187h58v-187h-58z" />
<glyph unicode="&#xfb02;" horiz-adv-x="804" d="M14 1032v53h178v109q0 336 340 348v-55q-118 -9 -172 -43q-110 -71 -110 -266v-93h337v431h58v-1516h-58v1032h-337v-1032h-58v1032h-178z" />
</font>
</defs>
</svg>
