<?xml version="1.0" standalone="no"?>
<!DOCTYPE svg PUBLIC "-//W3C//DTD SVG 1.1//EN" "http://www.w3.org/Graphics/SVG/1.1/DTD/svg11.dtd" >
<svg xmlns="http://www.w3.org/2000/svg">
<metadata></metadata>
<defs>
<font id="avenirnext_mediumregular" horiz-adv-x="1218" >
<font-face units-per-em="2048" ascent="1638" descent="-410" />
<missing-glyph horiz-adv-x="512" />
<glyph horiz-adv-x="1024" />
<glyph horiz-adv-x="1024" />
<glyph unicode="&#xd;" horiz-adv-x="0" />
<glyph unicode=" "  horiz-adv-x="512" />
<glyph unicode="&#x09;" horiz-adv-x="512" />
<glyph unicode="&#xa0;" horiz-adv-x="512" />
<glyph unicode="!" horiz-adv-x="684" d="M204 121q0 55 39 95t98 40q60 0 98.5 -39t38.5 -94q0 -53 -38.5 -94t-98.5 -41q-57 0 -97 40t-40 93zM239 424v1026h203v-1026h-203z" />
<glyph unicode="&#x22;" horiz-adv-x="866" d="M184 938v512h168v-512h-168zM514 938v512h168v-512h-168z" />
<glyph unicode="#" horiz-adv-x="1175" d="M83 432v150h217l39 288h-201v150h224l59 430h154l-62 -430h242l59 430h154l-62 -430h185v-150h-205l-41 -288h190v-150h-209l-61 -432h-154l62 432h-242l-61 -432h-152l62 432h-197zM452 582h241l39 288h-239z" />
<glyph unicode="$" d="M83 180l150 127q26 -39 65 -69.5t80 -52t83 -33t79 -11.5v521q-80 22 -155 54t-131 80t-91 115.5t-35 163.5q0 90 34 162t90 122t131 79.5t157 34.5v143h104v-141q107 -2 216.5 -40t187.5 -116l-140 -129q-47 59 -119.5 90t-144.5 33v-488q78 -26 155 -59t137 -83 t97 -122t37 -172q0 -96 -33.5 -172t-92 -129t-136.5 -80.5t-164 -30.5v-147h-104v147q-138 5 -254.5 57t-202.5 146zM323 1087q0 -98 60 -150t157 -81v457q-90 -6 -153.5 -64.5t-63.5 -161.5zM644 141q45 2 86 18.5t73 46.5t51.5 75t19.5 106q0 98 -66 155.5t-164 90.5v-492 z" />
<glyph unicode="%" horiz-adv-x="1781" d="M83 1112q0 76 28.5 141.5t78 114.5t115 78t140.5 29q76 0 141.5 -29t115 -78t78 -114.5t28.5 -141.5t-28.5 -141.5t-78 -114.5t-115 -77.5t-141.5 -28.5q-75 0 -140.5 28.5t-115 77.5t-78 114.5t-28.5 141.5zM253 1112q0 -41 15.5 -76t41 -60.5t60.5 -40.5t75 -15 q39 0 75 15t61.5 40.5t41 60.5t15.5 76q0 39 -15.5 75t-41 61.5t-61.5 41t-75 15.5q-40 0 -75 -15.5t-60.5 -41t-41 -61.5t-15.5 -75zM378 2l889 1514l137 -68l-887 -1514zM972 338q0 76 28.5 141.5t77.5 114.5t115 77.5t141 28.5q76 0 141.5 -28.5t114.5 -77.5t78 -114.5 t29 -141.5t-29 -141.5t-78 -114.5t-114.5 -78t-141.5 -29q-75 0 -141 29t-115 78t-77.5 114.5t-28.5 141.5zM1142 338q0 -41 15.5 -76t41 -60.5t60 -41t75.5 -15.5q39 0 75 15.5t61.5 41t41 60.5t15.5 76q0 39 -15.5 75t-41 61.5t-61.5 40.5t-75 15q-41 0 -75.5 -15 t-60 -40.5t-41 -61.5t-15.5 -75z" />
<glyph unicode="&#x26;" horiz-adv-x="1480" d="M98 385q0 82 27.5 146.5t72.5 115.5t104.5 90t121.5 68q-70 72 -118 152.5t-48 179.5q0 88 31.5 153.5t86 109.5t124 65.5t145.5 21.5t143.5 -21.5t118.5 -64.5t82 -106.5t31 -147.5q0 -72 -26 -129t-69 -104.5t-99 -84t-118 -65.5l289 -297l182 307h226l-279 -432 l332 -342h-268l-181 190q-82 -102 -185 -159.5t-255 -57.5q-94 0 -180 27t-150.5 79t-102.5 129t-38 177zM303 389q0 -57 22.5 -104t60.5 -80t87 -50.5t100 -17.5q105 0 176.5 46t130.5 136l-344 361q-106 -45 -169.5 -112.5t-63.5 -178.5zM452 1135q0 -35 13.5 -70 t34 -68.5t46 -62.5t50.5 -51q45 20 88 44.5t75.5 57.5t53 72t20.5 86q0 78 -52 131t-134 53q-84 0 -139.5 -53t-55.5 -139z" />
<glyph unicode="'" horiz-adv-x="536" d="M184 938v512h168v-512h-168z" />
<glyph unicode="(" horiz-adv-x="645" d="M69 590q0 258 82 493.5t217 417.5l139 -90q-121 -168 -192.5 -382t-71.5 -439t71.5 -439t192.5 -382l-139 -91q-135 183 -217 418.5t-82 493.5z" />
<glyph unicode=")" horiz-adv-x="645" d="M137 -231q121 168 192.5 382t71.5 439t-71.5 439t-192.5 382l139 90q135 -182 217 -417.5t82 -493.5t-82 -493.5t-217 -418.5z" />
<glyph unicode="*" horiz-adv-x="929" d="M57 1114l55 156l260 -84v264h164v-264l260 84l56 -156l-260 -84l165 -223l-131 -98l-172 231l-172 -231l-131 98l166 223z" />
<glyph unicode="+" horiz-adv-x="1363" d="M143 537v168h455v454h168v-454h454v-168h-454v-455h-168v455h-455z" />
<glyph unicode="," horiz-adv-x="532" d="M69 -272l141 512h193l-170 -512h-164z" />
<glyph unicode="-" horiz-adv-x="655" d="M90 418v164h475v-164h-475z" />
<glyph unicode="." horiz-adv-x="532" d="M129 121q0 55 39 95t98 40q60 0 98.5 -39t38.5 -94q0 -53 -38.5 -94t-98.5 -41q-57 0 -97 40t-40 93z" />
<glyph unicode="/" horiz-adv-x="778" d="M-4 -18l629 1538l145 -54l-629 -1534z" />
<glyph unicode="0" d="M114 725q0 158 28.5 297t89 242.5t155 163t223.5 59.5t222 -59.5t153.5 -163t89 -242.5t28.5 -297q0 -160 -28.5 -298t-89 -241.5t-153.5 -163t-222 -59.5t-223.5 59.5t-155 163t-89 241.5t-28.5 298zM317 725q0 -92 12 -196.5t44 -192.5t89.5 -146.5t147.5 -58.5 q88 0 144 58.5t89 146.5t45 192.5t12 196.5t-12 196.5t-45 193.5t-89 147.5t-144 58.5q-90 0 -147.5 -58.5t-89.5 -147.5t-44 -193.5t-12 -196.5z" />
<glyph unicode="1" d="M186 1116l412 334h178v-1450h-199v1208l-274 -229z" />
<glyph unicode="2" d="M122 0v190l578 574q65 67 112 141t47 166q0 57 -20.5 103.5t-55 79t-82 50t-100.5 17.5q-110 0 -182 -70.5t-90 -181.5l-195 33q13 82 52.5 152.5t101 123t142.5 81t173 28.5q90 0 173 -26.5t146.5 -78t101.5 -129t38 -178.5q0 -69 -18.5 -128.5t-50 -113t-74.5 -101.5 t-90 -95l-471 -459h710v-178h-946z" />
<glyph unicode="3" d="M81 283l184 61q33 -94 112 -153.5t193 -59.5q56 0 108 17.5t93 52.5t65.5 86t24.5 121q0 75 -32.5 126.5t-85 83t-118 45t-128.5 13.5h-62v164h64q61 0 119.5 11t103.5 39t72.5 75t27.5 116q0 56 -20.5 100t-56 74.5t-81.5 48t-98 17.5q-92 0 -156.5 -47t-97.5 -131 l-180 63q53 131 171 206t272 75q90 0 170.5 -25.5t142 -75t97.5 -123t36 -169.5q0 -62 -19.5 -115t-53 -96t-81 -74t-102.5 -45v-4q64 -12 118 -43t93 -77t61.5 -105.5t22.5 -128.5q0 -109 -41 -192t-108.5 -138.5t-155.5 -84t-180 -28.5q-172 0 -303.5 78t-190.5 242z" />
<glyph unicode="4" d="M63 326v180l616 944h244v-954h209v-170h-209v-326h-192v326h-668zM268 496h463v727h-4z" />
<glyph unicode="5" d="M96 254l180 72q35 -88 110 -141.5t173 -53.5q63 0 118.5 22.5t96.5 63.5t64.5 98.5t23.5 126.5q0 82 -27.5 142.5t-75 99.5t-108.5 57.5t-129 18.5q-82 0 -168 -22.5t-154 -57.5l21 770h782v-176h-598l-12 -381q41 14 91 20.5t95 6.5q105 0 194 -32t153.5 -91.5 t101.5 -144.5t37 -189q0 -115 -39 -207t-106.5 -156.5t-160 -100.5t-200.5 -36q-170 0 -287 79t-176 212z" />
<glyph unicode="6" d="M106 440q0 119 39 215.5t102 196.5l379 598h236l-389 -584l2 -4q30 19 81.5 29t98.5 10q94 0 177 -33.5t144.5 -94t96 -144.5t34.5 -183q0 -108 -37.5 -197t-105 -152.5t-159 -98.5t-197.5 -35q-109 0 -201 36t-158.5 99.5t-104.5 151.5t-38 190zM307 438 q0 -63 21.5 -119.5t61.5 -97.5t95 -65.5t123 -24.5q67 0 121.5 22.5t94.5 64.5t61.5 98.5t21.5 123.5q0 66 -21.5 121t-59.5 96t-93.5 63.5t-122.5 22.5q-68 0 -124 -22.5t-96 -63.5t-61.5 -96t-21.5 -123z" />
<glyph unicode="7" d="M131 1274v176h924v-180l-582 -1270h-227l604 1274h-719z" />
<glyph unicode="8" d="M122 395q0 72 21.5 133.5t59.5 108.5t88 79t105 48v4q-98 35 -160.5 119t-62.5 205q0 90 35 162.5t94.5 125t138 80t168.5 27.5q88 0 168 -27.5t138.5 -78t93.5 -123t35 -162.5q0 -119 -62.5 -207t-161.5 -121v-4q58 -14 108 -48t87 -81t58.5 -108.5t21.5 -131.5 q0 -102 -39 -182t-105.5 -135t-154.5 -85t-187 -30q-98 0 -187 30t-155.5 85t-105.5 135t-39 182zM325 406q0 -62 20.5 -113t58 -87t90 -56.5t115.5 -20.5q62 0 114 20.5t89 56.5t58.5 87t21.5 113q0 59 -21.5 109t-58.5 87t-89 57.5t-114 20.5q-61 0 -113 -20.5t-90 -57.5 t-59.5 -87t-21.5 -109zM372 1085q0 -49 17.5 -92t49 -74.5t75.5 -50t95 -18.5q50 0 93 18.5t75.5 50t51 74.5t18.5 92q0 52 -19.5 96t-51 75.5t-74.5 49t-93 17.5q-51 0 -95 -17.5t-75.5 -49t-49 -75.5t-17.5 -96z" />
<glyph unicode="9" d="M110 1004q0 108 38 197t105.5 152.5t159.5 98.5t199 35q106 0 198.5 -36t159 -99.5t104 -151.5t37.5 -190q0 -119 -38.5 -215.5t-100.5 -196.5l-379 -598h-235l389 586l-2 2q-31 -19 -84 -29q-25 -4 -50.5 -7t-47.5 -3q-97 0 -178.5 33.5t-143 94t-96.5 144.5t-35 183z M311 1010q0 -66 21.5 -121t60.5 -96t94 -63.5t123 -22.5q67 0 123.5 22.5t96.5 63.5t61.5 96t21.5 123q0 63 -21.5 119.5t-61.5 98.5t-95.5 66.5t-122.5 24.5q-68 0 -123 -23.5t-95 -64.5t-61.5 -98.5t-21.5 -124.5z" />
<glyph unicode=":" horiz-adv-x="614" d="M169 121q0 55 39 95t98 40q60 0 98.5 -39t38.5 -94q0 -53 -38.5 -94t-98.5 -41q-57 0 -97 40t-40 93zM169 848q0 53 39 94t98 41q60 0 98.5 -40t38.5 -93q0 -55 -38.5 -95t-98.5 -40q-57 0 -97 39t-40 94z" />
<glyph unicode=";" horiz-adv-x="614" d="M88 -272l141 512h193l-170 -512h-164zM170 848q0 53 39 94t98 41q60 0 98.5 -40t38.5 -93q0 -55 -38.5 -95t-98.5 -40q-57 0 -97 39t-40 94z" />
<glyph unicode="&#x3c;" horiz-adv-x="1363" d="M161 559v123l1044 473v-174l-788 -360l784 -361v-174z" />
<glyph unicode="=" horiz-adv-x="1363" d="M143 369v166h1077v-166h-1077zM143 707v165h1077v-165h-1077z" />
<glyph unicode="&#x3e;" horiz-adv-x="1363" d="M161 86v174l784 361l-784 360v174l1040 -473v-123z" />
<glyph unicode="?" horiz-adv-x="1024" d="M98 1102q12 88 51 158.5t97.5 120t134 75t161.5 25.5t161 -24.5t132.5 -73t90 -119t32.5 -162.5q0 -66 -14.5 -115t-40 -89t-62 -75t-79.5 -71q-41 -35 -70 -62.5t-45.5 -56.5t-23.5 -63.5t-7 -86.5v-71h-192v98q0 53 10 96t29.5 78t47 66.5t62.5 64.5l76 72 q45 39 74.5 85t29.5 118q0 98 -62.5 156.5t-160.5 58.5q-102 0 -163.5 -65.5t-71.5 -160.5zM393 121q0 55 39 95t98 40q60 0 98.5 -39t38.5 -94q0 -53 -38.5 -94t-98.5 -41q-57 0 -97 40t-40 93z" />
<glyph unicode="@" horiz-adv-x="1638" d="M67 723q0 164 61.5 303t168 241.5t249 161t303.5 58.5q140 0 271 -41t232 -123t161.5 -205t60.5 -289q0 -122 -32.5 -216.5t-88 -158t-128 -95t-152.5 -31.5q-86 0 -132 42t-46 101h-10q-13 -22 -35.5 -48t-55 -47.5t-72.5 -34.5t-89 -13q-140 0 -217.5 93t-77.5 241 q0 86 28.5 169.5t82 148t128 104.5t166.5 40q78 0 133.5 -33.5t73.5 -82.5h4l19 86h155l-80 -385q-6 -29 -13 -72t-7 -74q0 -35 14.5 -63.5t67.5 -28.5q45 0 83 25.5t64.5 70.5t42 108.5t15.5 137.5q0 129 -42 227.5t-118 165t-180.5 100t-227.5 33.5q-135 0 -245.5 -47 t-190.5 -131t-123 -197.5t-43 -244.5q0 -139 46 -252t128 -191.5t196 -121.5t251 -43q174 0 300 54t230 152l94 -108q-120 -127 -285 -186.5t-356 -59.5q-176 0 -320.5 56.5t-246.5 156.5t-158.5 240.5t-56.5 306.5zM618 655q0 -26 6 -58t22.5 -59.5t45 -46t73.5 -18.5 q64 0 107 32t70.5 78t40 100t12.5 99q0 37 -7.5 72t-24.5 62.5t-46 45t-74 17.5q-55 0 -97 -29.5t-70.5 -77t-43 -104.5t-14.5 -113z" />
<glyph unicode="A" horiz-adv-x="1456" d="M10 0l629 1450h184l623 -1450h-230l-147 356h-688l-146 -356h-225zM452 535h543l-270 679z" />
<glyph unicode="B" horiz-adv-x="1314" d="M176 0v1450h500q82 0 163.5 -18.5t146 -61.5t104.5 -112.5t40 -174.5q0 -120 -69.5 -202t-184.5 -113v-4q70 -8 129.5 -36t102.5 -73t66.5 -106.5t23.5 -136.5q0 -105 -43 -182.5t-117 -128t-173 -76t-212 -25.5h-477zM379 172h254q63 0 127.5 11.5t117 40t84 76.5 t31.5 122q0 129 -88 186.5t-254 57.5h-272v-494zM379 838h264q57 0 109.5 13t91.5 41t61.5 70t22.5 101q0 117 -86 167t-232 50h-231v-442z" />
<glyph unicode="C" horiz-adv-x="1449" d="M102 727q0 170 58.5 310.5t162 239.5t244.5 154.5t307 55.5q74 0 149.5 -14.5t145.5 -43t127 -70.5t98 -97l-159 -123q-54 73 -151 121.5t-210 48.5q-127 0 -228.5 -46t-173 -126t-110.5 -185.5t-39 -224.5q0 -123 38 -229.5t108.5 -185.5t172 -124t226.5 -45 q123 0 223.5 49.5t165.5 143.5l162 -111q-86 -116 -223.5 -189t-329.5 -73q-166 0 -306.5 56.5t-241.5 158t-158.5 241.5t-57.5 308z" />
<glyph unicode="D" horiz-adv-x="1558" d="M176 0v1450h498q139 0 278 -41t252 -129t182.5 -225t69.5 -330q0 -186 -69.5 -322.5t-182.5 -225.5t-252 -133t-278 -44h-498zM379 178h254q131 0 242.5 37t192.5 106.5t126 172t45 231.5q0 135 -45 237.5t-126 171t-192.5 104.5t-242.5 36h-254v-1096z" />
<glyph unicode="E" horiz-adv-x="1230" d="M176 0v1450h930v-178h-727v-434h684v-174h-684v-484h758v-180h-961z" />
<glyph unicode="F" horiz-adv-x="1163" d="M176 0v1450h905v-178h-702v-451h657v-174h-657v-647h-203z" />
<glyph unicode="G" horiz-adv-x="1593" d="M102 727q0 170 58.5 310.5t162 239.5t244.5 154.5t307 55.5q174 0 310.5 -51.5t226.5 -137.5l-142 -147q-65 72 -166.5 115t-226.5 43q-127 0 -229.5 -46t-174 -126t-110.5 -185.5t-39 -224.5q0 -121 39 -227.5t110.5 -185t176 -124t233.5 -45.5q103 0 189 18.5t149 53.5 v404h-321v172h522v-703q-115 -61 -250 -94t-295 -33q-170 0 -312.5 56.5t-244.5 158t-159.5 241.5t-57.5 308z" />
<glyph unicode="H" horiz-adv-x="1492" d="M176 0v1450h203v-606h733v606h205v-1450h-205v664h-733v-664h-203z" />
<glyph unicode="I" horiz-adv-x="555" d="M176 0v1450h203v-1450h-203z" />
<glyph unicode="J" horiz-adv-x="1013" d="M30 270l188 54q17 -78 72 -129.5t137 -51.5q66 0 108 25t66.5 66.5t34.5 98t10 120.5v997h203v-1006q0 -75 -16.5 -159t-61.5 -156t-125.5 -119t-207.5 -47q-166 0 -270.5 86t-137.5 221z" />
<glyph unicode="K" horiz-adv-x="1349" d="M176 0v1450h203v-639h4l647 639h281l-705 -664l748 -786h-291l-680 750h-4v-750h-203z" />
<glyph unicode="L" horiz-adv-x="1046" d="M176 0v1450h203v-1270h647v-180h-850z" />
<glyph unicode="M" horiz-adv-x="1849" d="M176 0v1450h315l435 -1114h4l428 1114h315v-1450h-203v1212h-4l-481 -1212h-129l-479 1212h-4v-1212h-197z" />
<glyph unicode="N" horiz-adv-x="1581" d="M176 0v1450h264l758 -1159h4v1159h203v-1450h-256l-766 1184h-4v-1184h-203z" />
<glyph unicode="O" horiz-adv-x="1738" d="M102 727q0 170 57.5 310.5t159.5 239.5t242.5 154.5t306.5 55.5t307 -55.5t243.5 -154.5t161 -239.5t58.5 -310.5q0 -168 -58.5 -308t-161 -241.5t-243.5 -158t-307 -56.5t-306.5 56.5t-242.5 158t-159.5 241.5t-57.5 308zM321 727q0 -121 39 -227.5t110.5 -185t172 -124 t225.5 -45.5t227.5 45.5t174 124t110.5 185t39 227.5q0 119 -39 224.5t-110.5 185.5t-173 126t-228.5 46q-125 0 -226.5 -46t-172 -126t-109.5 -185.5t-39 -224.5z" />
<glyph unicode="P" d="M176 0v1450h442q117 0 213.5 -23.5t164 -72.5t104.5 -125t37 -182q0 -109 -40 -187t-111 -127t-168 -72.5t-210 -23.5h-229v-637h-203zM379 809h215q74 0 136 13.5t107.5 41t70 72.5t24.5 111q0 65 -25.5 109t-70 71.5t-105.5 39t-133 11.5h-219v-469z" />
<glyph unicode="Q" horiz-adv-x="1732" d="M102 743q0 164 57.5 300.5t157.5 234.5t238.5 153.5t302.5 55.5q162 0 299 -55.5t237.5 -153.5t156.5 -234.5t56 -300.5q0 -194 -82 -339.5t-217 -229.5v-4h400v-170h-852q-166 0 -304.5 53t-238.5 149.5t-155.5 233.5t-55.5 307zM321 743q0 -118 38 -221.5t107.5 -179.5 t168 -120t221.5 -44q118 0 217.5 44t169 120t108.5 179.5t39 221.5q0 117 -37 219.5t-106.5 179.5t-167.5 122t-221 45t-221.5 -45t-169 -122t-108.5 -179.5t-38 -219.5z" />
<glyph unicode="R" horiz-adv-x="1257" d="M176 0v1450h465q104 0 198.5 -21.5t165 -68.5t111.5 -124t41 -187q0 -160 -98.5 -258.5t-253.5 -124.5l405 -666h-246l-368 645h-217v-645h-203zM379 815h233q72 0 133.5 12.5t107.5 40t72.5 71.5t26.5 110q0 65 -26.5 109t-70.5 70.5t-103.5 38t-124.5 11.5h-248v-463z " />
<glyph unicode="S" horiz-adv-x="1165" d="M75 174l158 133q51 -76 137 -123t186 -47q51 0 102.5 14.5t93.5 45t68.5 76.5t26.5 112t-27.5 110t-74.5 74.5t-109.5 52t-132.5 44.5q-70 20 -137.5 49.5t-120.5 76t-86 114t-33 167.5q0 109 44 186.5t115 129t160 75t179 23.5q127 0 237.5 -45t178.5 -121l-144 -139 q-43 59 -116.5 97t-165.5 38q-50 0 -100 -13.5t-91 -43t-66.5 -73.5t-25.5 -106q0 -59 23.5 -99t63.5 -67.5t94.5 -47t115.5 -40.5q74 -22 149.5 -50.5t137 -76t100.5 -118t39 -179.5q0 -112 -42 -195t-111.5 -137.5t-161 -81t-187.5 -26.5q-137 0 -265 53.5t-212 157.5z " />
<glyph unicode="T" horiz-adv-x="1165" d="M16 1272v178h1133v-178h-465v-1272h-203v1272h-465z" />
<glyph unicode="U" horiz-adv-x="1458" d="M165 537v913h203v-901q0 -74 18.5 -146.5t60.5 -130t110.5 -92.5t170.5 -35q101 0 170.5 35t111.5 92.5t60.5 130t18.5 146.5v901h202v-913q0 -111 -33.5 -214.5t-103 -183.5t-176 -128t-250.5 -48q-143 0 -249.5 48t-176 128t-103.5 183.5t-34 214.5z" />
<glyph unicode="V" horiz-adv-x="1314" d="M-4 1450h225l437 -1188h6l436 1188h219l-569 -1450h-189z" />
<glyph unicode="W" horiz-adv-x="2023" d="M20 1450h219l320 -1155h4l340 1155h223l338 -1155h4l319 1155h215l-426 -1450h-210l-353 1165h-4l-352 -1165h-211z" />
<glyph unicode="X" horiz-adv-x="1368" d="M36 0l518 768l-467 682h248l348 -541l344 541h238l-463 -686l526 -764h-256l-397 610l-389 -610h-250z" />
<glyph unicode="Y" horiz-adv-x="1277" d="M-6 1450h250l401 -655l404 655h235l-542 -823v-627h-205v627z" />
<glyph unicode="Z" horiz-adv-x="1212" d="M67 0v178l817 1094h-801v178h1049v-178l-819 -1092h831v-180h-1077z" />
<glyph unicode="[" horiz-adv-x="645" d="M120 -319v1818h362v-135h-190v-1548h190v-135h-362z" />
<glyph unicode="\" horiz-adv-x="778" d="M8 1466l143 54l631 -1538l-145 -50z" />
<glyph unicode="]" horiz-adv-x="645" d="M161 -184h190v1548h-190v135h362v-1818h-362v135z" />
<glyph unicode="^" horiz-adv-x="1363" d="M151 633l463 817h135l463 -817h-187l-346 614l-342 -614h-186z" />
<glyph unicode="_" horiz-adv-x="1024" d="M0 -154h1024v-129h-1024v129z" />
<glyph unicode="`" horiz-adv-x="512" d="M-69 1450h231l205 -295h-157z" />
<glyph unicode="a" horiz-adv-x="1110" d="M94 274q0 111 59.5 175.5t155.5 98.5t217 44t244 10v27q0 108 -65.5 160.5t-174.5 52.5q-82 0 -154.5 -32t-121.5 -81l-103 123q72 68 175.5 106.5t222.5 38.5q104 0 181 -29.5t126 -80.5t73.5 -121t24.5 -150v-423q0 -50 3 -104t11 -89h-174q-16 70 -16 139h-6 q-53 -78 -134 -121t-192 -43q-57 0 -119.5 15.5t-113.5 50.5t-85 92t-34 141zM291 279q0 -43 17 -72t46 -47.5t63.5 -25.5t71.5 -7q135 0 208 81t73 204v51h-47q-72 0 -149 -6t-139 -24.5t-103 -55.5t-41 -98z" />
<glyph unicode="b" horiz-adv-x="1302" d="M169 0v1548h193v-723h6q49 72 137 122t209 50q108 0 197 -38.5t154 -108.5t99.5 -163t34.5 -200q0 -106 -34.5 -200t-98 -164t-154 -110t-202.5 -40q-105 0 -199 46.5t-152 134.5h-4v-154h-186zM349 485q0 -69 23.5 -132.5t66.5 -111.5t103.5 -77t134.5 -29 q80 0 140.5 30t101.5 79t61 112.5t20 130.5q0 68 -20 131.5t-61 112.5t-101.5 78t-140.5 29q-74 0 -134.5 -29t-103.5 -78t-66.5 -112.5t-23.5 -133.5z" />
<glyph unicode="c" horiz-adv-x="1011" d="M102 485q0 115 39 209t108.5 162t165 104.5t205.5 36.5q103 0 204 -41t161 -118l-140 -113q-30 47 -91.5 79t-131.5 32q-76 0 -134 -29t-99 -77t-62.5 -111.5t-21.5 -133.5q0 -69 21.5 -132.5t62.5 -111.5t100 -77t135 -29q74 0 134.5 29t99.5 78l129 -117 q-62 -72 -154 -112t-209 -40q-112 0 -207.5 37t-165 103.5t-109.5 161t-40 210.5z" />
<glyph unicode="d" horiz-adv-x="1300" d="M100 487q0 107 35 200t99.5 163t154.5 108.5t198 38.5q119 0 207 -50t140 -122h4v723h192v-1548h-186v154h-4q-56 -88 -151 -134.5t-200 -46.5q-112 0 -202 40t-153.5 110t-98.5 164t-35 200zM301 487q0 -67 20.5 -130.5t61.5 -112.5t100 -79t139 -30q74 0 134.5 29 t103.5 77t66.5 111.5t23.5 132.5q0 70 -23.5 133.5t-66.5 112.5t-103.5 78t-134.5 29q-80 0 -139 -29t-100 -78t-61.5 -112.5t-20.5 -131.5z" />
<glyph unicode="e" horiz-adv-x="1173" d="M102 483q0 113 38 208t105.5 163t159.5 105.5t199 37.5q106 0 193 -34.5t147.5 -100t93.5 -159t33 -209.5v-33.5t-2 -32.5h-770q2 -61 27.5 -115.5t68.5 -94.5t99.5 -62.5t119.5 -22.5q98 0 170 43t113 105l135 -109q-78 -102 -183.5 -150.5t-234.5 -48.5q-111 0 -205 37 t-161.5 103.5t-106.5 161t-39 208.5zM299 571h577q-2 58 -19.5 108t-51 87t-84 58.5t-117.5 21.5q-62 0 -116 -21.5t-94 -58.5t-65.5 -87t-29.5 -108z" />
<glyph unicode="f" horiz-adv-x="634" d="M12 813v158h193v203q0 86 19 158.5t63 125.5t113 84t167 31q70 0 121 -14l-23 -166q-22 6 -44.5 10t-51.5 4q-55 0 -89 -19.5t-52.5 -52t-24.5 -74.5t-6 -87v-203h225v-158h-225v-813h-192v813h-193z" />
<glyph unicode="g" horiz-adv-x="1294" d="M102 492q0 104 35 196t98.5 161t153.5 108.5t200 39.5q105 0 200 -45t151 -137h4v156h186v-922q0 -106 -26.5 -203.5t-90 -172t-166 -120t-253.5 -45.5q-127 0 -255 46.5t-221 130.5l123 149q64 -72 159 -115t196 -43q96 0 161.5 28t105.5 76t57.5 113.5t17.5 141.5v125 h-5q-53 -82 -145 -125t-197 -43q-110 0 -201 39t-154.5 106.5t-98.5 158.5t-35 196zM301 496q0 -68 21.5 -129.5t63.5 -108.5t101 -75.5t135 -28.5q74 0 135.5 26.5t104.5 72.5t66.5 108.5t23.5 134.5q0 69 -23.5 130.5t-67.5 108.5t-104.5 75t-134.5 28q-76 0 -135 -28 t-101 -74t-63.5 -108.5t-21.5 -131.5z" />
<glyph unicode="h" horiz-adv-x="1196" d="M169 0v1548h193v-725h4q34 72 118 123t189 51q94 0 161.5 -31.5t112.5 -85t66.5 -125t21.5 -153.5v-602h-192v537q0 59 -9.5 112t-34 94t-66.5 66t-109 25q-115 0 -188.5 -87.5t-73.5 -232.5v-514h-193z" />
<glyph unicode="i" horiz-adv-x="530" d="M137 1321q0 53 37 89t90 36t91 -36t38 -89t-38 -88t-91 -35t-90 36t-37 87zM168 0v971h192v-971h-192z" />
<glyph unicode="j" horiz-adv-x="532" d="M-63 -479l20 164q41 -11 78 -11q43 0 70 16.5t41 44t19 65.5t5 81v1090h193v-1096q0 -74 -13.5 -139.5t-48 -116.5t-96 -81t-157.5 -30q-27 0 -57.5 4.5t-53.5 8.5zM138 1321q0 53 37.5 89t91.5 36q53 0 91 -36t38 -89t-38 -88t-91 -35q-54 0 -91.5 36t-37.5 87z" />
<glyph unicode="k" horiz-adv-x="1079" d="M169 0v1548h193v-999h6l407 422h258l-454 -441l493 -530h-266l-438 504h-6v-504h-193z" />
<glyph unicode="l" horiz-adv-x="532" d="M169 0v1548h193v-1548h-193z" />
<glyph unicode="m" horiz-adv-x="1816" d="M157 971h182q4 -37 6 -83t2 -77h7q36 78 117 132t192 54q98 0 177 -45t124 -149q49 94 137 144t193 50q94 0 161.5 -31.5t112.5 -85t66.5 -125t21.5 -153.5v-602h-192v539q0 59 -10.5 112.5t-35 94t-65.5 65.5t-104 25q-66 0 -113 -28t-77 -72t-43 -99t-13 -113v-524 h-193v578q0 57 -10 104t-34.5 81t-63.5 53.5t-96 19.5q-107 0 -177.5 -87t-70.5 -233v-516h-193v762q0 39 -2 100.5t-6 108.5z" />
<glyph unicode="n" horiz-adv-x="1191" d="M157 971h182q4 -37 6 -83t2 -77h7q18 39 50 73t72.5 59.5t90 39.5t102.5 14q94 0 161.5 -31.5t112.5 -85t66.5 -125t21.5 -153.5v-602h-192v539q0 59 -9 112.5t-34 94t-68 65.5t-110 25q-115 0 -187.5 -87t-72.5 -233v-516h-193v762q0 39 -2 100.5t-6 108.5z" />
<glyph unicode="o" horiz-adv-x="1249" d="M102 487q0 113 40 206t109.5 161t166 105.5t206.5 37.5q111 0 207 -37.5t167 -105.5t111 -161t40 -206q0 -112 -40 -206.5t-111 -163t-167 -106.5t-207 -38q-110 0 -206.5 38t-166 106.5t-109.5 163t-40 206.5zM301 487q0 -69 21.5 -132.5t62.5 -112.5t101 -78t138 -29 t138.5 29t101.5 78t62.5 112.5t21.5 132.5q0 70 -21.5 133.5t-62.5 111.5t-101.5 77t-138.5 29t-138 -29t-101 -77t-62.5 -111.5t-21.5 -133.5z" />
<glyph unicode="p" horiz-adv-x="1298" d="M165 -492v1463h188v-152h7q47 78 138 128t212 50q108 0 197 -38.5t154 -108.5t99.5 -163t34.5 -200q0 -106 -34.5 -200t-98 -164t-154 -110t-202.5 -40q-105 0 -197 45t-145 127h-6v-637h-193zM345 485q0 -69 23.5 -132.5t66.5 -111.5t103.5 -77t134.5 -29q80 0 140.5 30 t101.5 79t61 112.5t20 130.5q0 68 -20 131.5t-61 112.5t-101.5 78t-140.5 29q-74 0 -134.5 -29t-103.5 -78t-66.5 -112.5t-23.5 -133.5z" />
<glyph unicode="q" horiz-adv-x="1296" d="M100 487q0 107 35 200t99.5 163t154.5 108.5t198 38.5q119 0 210 -50t141 -128h6v152h186v-1463h-192v637h-4q-54 -82 -147 -127t-198 -45q-112 0 -202 40t-153.5 110t-98.5 164t-35 200zM301 487q0 -67 20.5 -130.5t61.5 -112.5t100 -79t139 -30q74 0 134.5 29t103.5 77 t66.5 111.5t23.5 132.5q0 70 -23.5 133.5t-66.5 112.5t-103.5 78t-134.5 29q-80 0 -139 -29t-100 -78t-61.5 -112.5t-20.5 -131.5z" />
<glyph unicode="r" horiz-adv-x="741" d="M157 971h182q4 -37 6 -85t2 -79h7q41 86 119.5 138t177.5 52q45 0 75 -8l-8 -178q-41 10 -88 10q-70 0 -121 -25.5t-85 -68.5t-50 -99.5t-16 -117.5v-510h-193v762q0 39 -2 100.5t-6 108.5z" />
<glyph unicode="s" horiz-adv-x="909" d="M53 147l137 117q39 -57 107.5 -96t150.5 -39q37 0 71 7t61.5 23.5t44 43t16.5 67.5q0 68 -64.5 100.5t-189.5 61.5q-49 12 -99.5 29.5t-91.5 48.5t-66.5 77t-25.5 113q0 78 32 134.5t83 92.5t116.5 53t135.5 17q104 0 201.5 -41t150.5 -118l-133 -113q-33 53 -92.5 87 t-132.5 34q-33 0 -66 -7.5t-58.5 -22.5t-41 -38.5t-15.5 -58.5q0 -62 55.5 -91.5t166.5 -54.5q69 -16 128.5 -38.5t103.5 -56.5t68.5 -81t24.5 -110q0 -86 -32.5 -145.5t-87 -97.5t-124 -54.5t-143.5 -16.5q-110 0 -215.5 43t-175.5 131z" />
<glyph unicode="t" horiz-adv-x="673" d="M6 813v158h186v278h191v-278h258v-158h-258v-506q0 -88 32.5 -126t104.5 -38q27 0 57.5 6.5t55.5 18.5l6 -158q-35 -12 -77 -19t-87 -7q-137 0 -210 75.5t-73 227.5v526h-186z" />
<glyph unicode="u" horiz-adv-x="1191" d="M157 369v602h193v-537q0 -59 9 -113.5t33.5 -95.5t67.5 -65.5t111 -24.5q116 0 188 87t72 233v516h192v-762q0 -39 2 -100.5t6 -108.5h-182q-4 37 -6 83t-2 77h-4q-37 -78 -124 -132.5t-194 -54.5q-94 0 -162.5 31t-112.5 85t-65.5 126t-21.5 154z" />
<glyph unicode="v" horiz-adv-x="1032" d="M18 971h213l285 -764h4l286 764h205l-389 -971h-209z" />
<glyph unicode="w" horiz-adv-x="1583" d="M28 971h209l219 -742h4l232 742h202l236 -742h4l219 742h203l-322 -971h-200l-240 729h-4l-238 -729h-200z" />
<glyph unicode="x" horiz-adv-x="1046" d="M14 0l389 510l-354 461h237l238 -334l240 334h225l-350 -459l391 -512h-240l-270 379l-275 -379h-231z" />
<glyph unicode="y" horiz-adv-x="1032" d="M18 971h215l301 -762h4l268 762h205l-471 -1200q-24 -62 -53 -110t-68 -82t-91 -52.5t-124 -18.5q-30 0 -62 3.5t-65 11.5l19 170q49 -17 96 -17q76 0 113 42t67 120l62 162z" />
<glyph unicode="z" horiz-adv-x="946" d="M67 0v158l549 655h-522v158h764v-158l-553 -651h575v-162h-813z" />
<glyph unicode="{" horiz-adv-x="645" d="M10 514v152q61 0 106.5 43t45.5 141v385q0 70 19 120t53 82.5t78 47t91 14.5h139v-141h-104q-35 0 -55.5 -13.5t-30.5 -35t-14 -47t-4 -52.5v-374q0 -68 -21.5 -113t-52.5 -72.5t-63.5 -42t-53.5 -16.5v-4q21 -2 53.5 -14.5t63.5 -40t52.5 -74.5t21.5 -121v-369 q0 -26 4 -52t14 -47.5t30.5 -34.5t55.5 -13h104v-141h-139q-47 0 -91 14t-78 47t-53 82t-19 121v377q0 104 -45.5 148t-106.5 44z" />
<glyph unicode="|" horiz-adv-x="454" d="M143 -512v2048h168v-2048h-168z" />
<glyph unicode="}" horiz-adv-x="645" d="M102 -178h106q33 0 53.5 13t31 34.5t14.5 47.5t4 52v369q0 74 21.5 121t52 74.5t63.5 40t55 14.5v4q-22 2 -55 16.5t-63.5 42t-52 72.5t-21.5 113v374q0 27 -4 52.5t-14.5 47t-31 35t-53.5 13.5h-106v141h139q47 0 91 -14.5t78 -47t53.5 -82.5t19.5 -120v-385 q0 -98 45 -141t106 -43v-152q-61 0 -106 -44t-45 -148v-377q0 -72 -19.5 -121t-53.5 -82t-78 -47t-91 -14h-139v141z" />
<glyph unicode="~" horiz-adv-x="1363" d="M165 586q72 119 148.5 159.5t146.5 40.5q61 0 113.5 -16t121.5 -61q39 -25 68 -41.5t51.5 -24.5t42 -11t41.5 -3q103 0 178 139l121 -113q-37 -59 -73.5 -98t-74.5 -61.5t-75 -30.5t-72 -8q-59 0 -112.5 16t-124.5 62q-39 24 -66.5 39.5t-50.5 23.5t-42 11t-42 3 q-102 0 -178 -139z" />
<glyph unicode="&#xa1;" horiz-adv-x="684" d="M204 877q0 53 40 93t97 40q60 0 98.5 -41t38.5 -95q0 -55 -38.5 -94t-98.5 -39q-59 0 -98 40t-39 96zM239 -453v1026h203v-1026h-203z" />
<glyph unicode="&#xa2;" d="M169 487q0 103 30.5 190t88 153.5t139.5 108.5t184 54v133h105v-131q96 -4 185 -39.5t155 -113.5l-135 -123q-35 45 -87.5 74.5t-117.5 33.5v-684q65 2 119.5 33t89.5 76l131 -123q-66 -76 -156 -112.5t-184 -41.5v-135h-105v137q-102 11 -184 54t-139.5 110.5t-88 155.5 t-30.5 190zM359 485q0 -127 66 -221t186 -119v680q-123 -22 -187.5 -117.5t-64.5 -222.5z" />
<glyph unicode="&#xa3;" d="M143 0v172h205v494h-199v147h199v180q0 82 23.5 169t77.5 160t144.5 119t223.5 46q98 0 185 -31t153 -92l-121 -137q-39 43 -96.5 68.5t-124.5 25.5q-82 0 -133.5 -34t-81 -85t-39.5 -110.5t-10 -110.5v-168h339v-147h-339v-494h538v-172h-944z" />
<glyph unicode="&#xa4;" d="M40 100l176 181q-39 57 -63.5 131.5t-24.5 158.5q0 86 21.5 156t60.5 129l-170 172l106 105l173 -168q59 41 133.5 66.5t158.5 25.5q86 0 160 -25.5t131 -66.5l170 168l107 -105l-168 -168q43 -59 65.5 -131t22.5 -158t-25.5 -161.5t-66.5 -135.5l172 -174l-105 -106 l-178 174q-57 -41 -129 -63.5t-156 -22.5q-77 0 -151 24.5t-133 65.5l-181 -178zM300 571q0 -67 21.5 -125.5t62.5 -103.5t98.5 -70.5t128.5 -25.5q72 0 130.5 25.5t99.5 70.5t62.5 103.5t21.5 125.5q0 68 -21.5 126.5t-62.5 102.5t-99.5 69.5t-130.5 25.5 q-71 0 -128.5 -25.5t-98.5 -69.5t-62.5 -102.5t-21.5 -126.5z" />
<glyph unicode="&#xa5;" d="M26 1450h236l356 -602l348 602h225l-426 -662h289v-135h-348v-186h348v-135h-348v-332h-195v332h-348v135h348v186h-348v135h297z" />
<glyph unicode="&#xa6;" horiz-adv-x="454" d="M143 -358v716h168v-716h-168zM143 666v716h168v-716h-168z" />
<glyph unicode="&#xa7;" d="M153 -51l170 94q35 -84 110.5 -122t155.5 -38q33 0 71 9.5t70.5 29t53 52t20.5 81.5q0 43 -16.5 75t-52 58.5t-91 52t-135.5 60.5q-65 29 -123.5 58.5t-101.5 66.5t-68.5 86t-25.5 119q0 106 59.5 178t145.5 106q-56 35 -99 91.5t-43 148.5q0 84 35 146.5t91.5 103.5 t128 61.5t145.5 20.5q129 0 226 -49t148 -135l-145 -107q-29 53 -88 92t-139 39t-141.5 -41t-61.5 -119q0 -41 17.5 -72.5t50 -59t82 -51t112.5 -50.5q72 -31 134.5 -62.5t108.5 -73.5t71.5 -95.5t25.5 -122.5q0 -93 -51 -163.5t-123 -103.5q125 -84 125 -245 q0 -91 -36 -157.5t-94 -109.5t-133 -64.5t-153 -21.5q-133 0 -253 57.5t-183 176.5zM378 659q0 -38 15.5 -67t42 -50.5t62.5 -39t75 -35.5l172 -74q47 17 84 59t37 101q0 43 -15.5 73.5t-41 54.5t-58.5 41t-68 34l-153 67q-25 -6 -52.5 -19t-49 -32.5t-36 -47.5t-14.5 -65z " />
<glyph unicode="&#xa8;" horiz-adv-x="512" d="M-69 1321q0 49 36 87t91 38q53 0 90 -36t37 -89q0 -51 -37 -87t-90 -36q-55 0 -91 38t-36 85zM328 1321q0 49 36 87t91 38q54 0 90.5 -36t36.5 -89q0 -51 -36.5 -87t-90.5 -36q-55 0 -91 38t-36 85z" />
<glyph unicode="&#xa9;" horiz-adv-x="1638" d="M40 723q0 162 61.5 302t167 244.5t247.5 165t304 60.5q160 0 301.5 -60.5t247 -165t166.5 -244.5t61 -302q0 -160 -61 -300t-166.5 -244.5t-247 -164t-301.5 -59.5q-162 0 -304 59.5t-247.5 164t-167 244.5t-61.5 300zM163 723q0 -135 52 -254t141.5 -208t209 -140 t254.5 -51t254 51t208 140t140.5 208t51.5 254t-51.5 255t-140.5 209t-208 141t-254 52t-254.5 -52t-209 -141t-141.5 -209t-52 -255zM374 737q0 107 37 192t101.5 144.5t151.5 92t189 32.5q43 0 88 -8t88 -24.5t80 -42t64 -60.5l-119 -94q-35 47 -91.5 68.5t-109.5 21.5 q-68 0 -124 -24.5t-96 -67.5t-62.5 -102.5t-22.5 -127.5q0 -145 81 -235t218 -90q72 0 126 27.5t89 74.5l125 -88q-60 -74 -144.5 -115t-197.5 -41q-103 0 -190 34t-149.5 95.5t-97 147.5t-34.5 190z" />
<glyph unicode="&#xaa;" horiz-adv-x="778" d="M104 1049q0 63 37 102t94 60.5t129 27.5t139 6v15q0 53 -38.5 79.5t-94.5 26.5q-47 0 -89 -18.5t-71 -47.5l-73 89q49 47 114.5 69.5t131.5 22.5q77 0 127.5 -21.5t80 -57.5t41 -80t11.5 -87v-352h-138v75h-2q-22 -38 -70 -64t-112 -26q-35 0 -73 9.5t-70.5 30t-53 55 t-20.5 86.5zM249 1051q0 -43 32 -58.5t71 -15.5q74 0 112.5 40t38.5 109v21h-32q-35 0 -74 -3t-72 -13.5t-54.5 -29t-21.5 -50.5z" />
<glyph unicode="&#xab;" horiz-adv-x="1024" d="M81 500l299 444l125 -86l-236 -358l238 -359l-127 -88zM497 500l299 444l125 -86l-236 -358l236 -359l-125 -88z" />
<glyph unicode="&#xac;" horiz-adv-x="1363" d="M143 707v165h1077v-587h-166v422h-911z" />
<glyph unicode="&#xad;" horiz-adv-x="655" d="M90 418v164h475v-164h-475z" />
<glyph unicode="&#xae;" horiz-adv-x="1228" d="M147 1010q0 96 37 181t100.5 147.5t148.5 99.5t181 37t181 -37t148.5 -99.5t100.5 -147.5t37 -181q0 -97 -37 -181t-100.5 -146t-148.5 -98t-181 -36t-181 36t-148.5 98t-100.5 146t-37 181zM221 1010q0 -80 30.5 -152t84 -126t125 -85t153.5 -31t153.5 31t125 85t84 126 t30.5 152q0 82 -30.5 153.5t-84 124.5t-125 84t-153.5 31t-153.5 -31t-125 -84t-84 -124.5t-30.5 -153.5zM415 754v524h226q36 0 71 -8t63.5 -26.5t46 -50.5t17.5 -79q0 -53 -29.5 -88t-74.5 -51l139 -221h-147l-113 202h-74v-202h-125zM540 1047h96q29 0 52.5 18t23.5 49 q0 33 -26.5 47.5t-49.5 14.5h-96v-129z" />
<glyph unicode="&#xaf;" horiz-adv-x="512" d="M-47 1223v137h606v-137h-606z" />
<glyph unicode="&#xb0;" horiz-adv-x="819" d="M92 1157q0 68 24.5 125t67.5 100t100.5 68t124.5 25q68 0 125.5 -25t100.5 -68t67.5 -100t24.5 -125q0 -67 -24.5 -124.5t-67.5 -99.5t-100.5 -66.5t-125.5 -24.5q-67 0 -124.5 24.5t-100.5 66.5t-67.5 99.5t-24.5 124.5zM223 1157q0 -78 54.5 -132t131.5 -54 q78 0 132.5 54t54.5 132q0 39 -14.5 74t-40 60.5t-59.5 40t-73 14.5q-38 0 -72 -14.5t-59.5 -40t-40 -60.5t-14.5 -74z" />
<glyph unicode="&#xb1;" horiz-adv-x="1363" d="M143 82v166h1077v-166h-1077zM143 692v166h457v307h166v-307h454v-166h-454v-301h-166v301h-457z" />
<glyph unicode="&#xb2;" horiz-adv-x="788" d="M102 586v137l336 338q33 35 57.5 72.5t24.5 87.5q0 53 -35 82.5t-88 29.5q-55 0 -92 -38t-47 -101l-152 20q16 113 96 186t195 73q55 0 106.5 -15.5t90 -47.5t62.5 -79t24 -110q0 -88 -44.5 -149.5t-99.5 -115.5l-233 -229h379v-141h-580z" />
<glyph unicode="&#xb3;" horiz-adv-x="788" d="M81 788l145 46q19 -56 60 -89.5t100 -33.5q55 0 102.5 31.5t47.5 101.5q0 39 -17.5 63.5t-44 40t-60.5 21.5t-67 6h-55v127h55q66 0 115 28.5t49 100.5q0 49 -37 78.5t-88 29.5q-45 0 -81 -28.5t-54 -75.5l-139 47q37 92 111.5 142.5t166.5 50.5q58 0 108 -14.5t88 -44.5 t59.5 -75t21.5 -104q0 -70 -37 -119t-90 -71q65 -21 107 -76.5t42 -130.5q0 -68 -25.5 -117t-67.5 -83t-95 -50.5t-111 -16.5q-104 0 -186 50.5t-123 164.5z" />
<glyph unicode="&#xb4;" horiz-adv-x="512" d="M145 1155l205 295h231l-278 -295h-158z" />
<glyph unicode="&#xb5;" horiz-adv-x="1183" d="M153 -492v1463h193v-537q0 -59 9 -113.5t33.5 -95.5t67.5 -65.5t111 -24.5q116 0 188 87t72 233v516h192v-762q0 -39 2 -100.5t6 -108.5h-182q-4 37 -6 83t-2 77h-4q-37 -78 -124 -132.5t-194 -54.5q-51 0 -97 16.5t-72 45.5v-527h-193z" />
<glyph unicode="&#xb6;" horiz-adv-x="1228" d="M79 1047q0 202 129 302.5t344 100.5h518v-1708h-160v1579h-235v-1579h-162v928q-96 0 -176 28.5t-137.5 79.5t-89 120t-31.5 149z" />
<glyph unicode="&#xb7;" horiz-adv-x="532" d="M129 618q0 56 40 97t99 41q58 0 97.5 -40t39.5 -95q0 -54 -38.5 -95t-98.5 -41q-59 0 -99 40t-40 93z" />
<glyph unicode="&#xb8;" horiz-adv-x="512" d="M24 -434l41 86q76 -35 158 -35q16 0 37.5 4t41 13.5t33 25.5t13.5 43q0 45 -35 61.5t-76 16.5q-18 0 -40.5 -4t-43.5 -10l-41 40l127 193h102l-94 -141q15 4 27 4h29q34 0 68 -8.5t61.5 -26.5t45 -49t17.5 -76q0 -53 -24.5 -89t-62.5 -57.5t-84 -29.5t-89 -8 q-53 0 -110.5 12t-100.5 35z" />
<glyph unicode="&#xb9;" horiz-adv-x="788" d="M112 1241l256 209h137v-872h-160v679l-139 -120z" />
<glyph unicode="&#xba;" horiz-adv-x="778" d="M77 1176q0 67 23.5 122.5t64.5 95.5t98.5 62.5t124.5 22.5q68 0 125.5 -22.5t98 -62.5t64.5 -95.5t24 -122.5q0 -66 -24 -122.5t-64.5 -96t-98 -62.5t-125.5 -23q-67 0 -124.5 23t-98.5 62.5t-64.5 96t-23.5 122.5zM233 1176q0 -66 38.5 -117t116.5 -51t118 51t40 117 q0 67 -40 117t-118 50t-116.5 -50t-38.5 -117z" />
<glyph unicode="&#xbb;" horiz-adv-x="1024" d="M102 141l236 359l-236 358l125 86l299 -444l-299 -447zM516 141l237 359l-235 358l125 86l299 -444l-299 -447z" />
<glyph unicode="&#xbc;" horiz-adv-x="1781" d="M112 1241l256 209h137v-872h-160v679l-139 -120zM345 -8l924 1521l117 -63l-922 -1522zM995 186v131l362 555h170v-548h121v-138h-121v-186h-145v186h-387zM1152 324h230v356h-6z" />
<glyph unicode="&#xbd;" horiz-adv-x="1781" d="M112 1241l256 209h137v-872h-160v679l-139 -120zM345 -8l924 1521l117 -63l-922 -1522zM1081 0v137l336 338q32 35 56.5 73t24.5 87q0 53 -34.5 83t-87.5 30q-56 0 -92.5 -38t-47.5 -102l-151 21q16 112 96 185t195 73q55 0 106 -15.5t90 -47t62.5 -79t23.5 -110.5 q0 -88 -44 -149.5t-99 -114.5l-234 -230h379v-141h-579z" />
<glyph unicode="&#xbe;" horiz-adv-x="1781" d="M81 788l145 46q19 -56 60 -89.5t100 -33.5q55 0 102.5 31.5t47.5 101.5q0 39 -17.5 63.5t-44 40t-60.5 21.5t-67 6h-55v127h55q66 0 115 28.5t49 100.5q0 49 -37 78.5t-88 29.5q-45 0 -81 -28.5t-54 -75.5l-139 47q37 92 111.5 142.5t166.5 50.5q58 0 108 -14.5t88 -44.5 t59.5 -75t21.5 -104q0 -70 -37 -119t-90 -71q65 -21 107 -76.5t42 -130.5q0 -68 -25.5 -117t-67.5 -83t-95 -50.5t-111 -16.5q-104 0 -186 50.5t-123 164.5zM345 -8l924 1521l117 -63l-922 -1522zM994 186v131l363 555h170v-548h121v-138h-121v-186h-146v186h-387zM1152 324 h229v356h-6z" />
<glyph unicode="&#xbf;" horiz-adv-x="1024" d="M77 -104q0 65 14.5 114t40 89t62.5 75t80 72q41 35 68.5 62.5t45 56t24.5 63.5t7 86v72h193v-99q0 -53 -10.5 -96t-30 -77.5t-47 -66.5t-62.5 -65l-76 -71q-45 -39 -74.5 -85t-29.5 -118q0 -98 62.5 -156.5t160.5 -58.5q102 0 163.5 65.5t72.5 159.5l196 -22 q-12 -89 -51 -159.5t-97.5 -119.5t-134 -74.5t-161.5 -25.5t-161 24.5t-132 72.5t-90 118.5t-33 163.5zM368 874q0 54 39 95t98 41q57 0 97 -40t40 -93q0 -56 -39 -96t-98 -40t-98 39t-39 94z" />
<glyph unicode="&#xc0;" horiz-adv-x="1456" d="M10 0l629 1450h184l623 -1450h-230l-147 356h-688l-146 -356h-225zM375 1860h233l205 -295h-158zM452 535h543l-270 679z" />
<glyph unicode="&#xc1;" horiz-adv-x="1456" d="M10 0l629 1450h184l623 -1450h-230l-147 356h-688l-146 -356h-225zM452 535h543l-270 679zM659 1565l203 295h233l-280 -295h-156z" />
<glyph unicode="&#xc2;" horiz-adv-x="1456" d="M10 0l629 1450h184l623 -1450h-230l-147 356h-688l-146 -356h-225zM395 1565l229 295h222l229 -295h-186l-154 202l-156 -202h-184zM452 535h543l-270 679z" />
<glyph unicode="&#xc3;" horiz-adv-x="1456" d="M10 0l629 1450h184l623 -1450h-230l-147 356h-688l-146 -356h-225zM379 1581q8 45 21 87t38 76t60.5 54.5t89.5 20.5q38 0 78 -12.5t75 -28.5q41 -19 75 -32t62 -13q45 0 66.5 29.5t32.5 64.5h110q-8 -45 -21.5 -87t-38 -76t-61 -54.5t-88.5 -20.5q-39 0 -79.5 13.5 t-77.5 29.5q-37 19 -71 31t-62 12q-43 0 -64.5 -29.5t-32.5 -64.5h-112zM452 535h543l-270 679z" />
<glyph unicode="&#xc4;" horiz-adv-x="1456" d="M10 0l629 1450h184l623 -1450h-230l-147 356h-688l-146 -356h-225zM405 1731q0 49 36 86.5t91 37.5q53 0 90 -35.5t37 -88.5q0 -52 -37 -87.5t-90 -35.5q-55 0 -91 37.5t-36 85.5zM452 535h543l-270 679zM803 1731q0 49 35.5 86.5t91.5 37.5q53 0 90 -35.5t37 -88.5 q0 -52 -37 -87.5t-90 -35.5q-56 0 -91.5 37.5t-35.5 85.5z" />
<glyph unicode="&#xc5;" horiz-adv-x="1456" d="M10 0l629 1450h184l623 -1450h-230l-147 356h-688l-146 -356h-225zM452 535h543l-270 679zM528 1745q0 88 59.5 145.5t145.5 57.5t146.5 -57.5t60.5 -143.5q0 -88 -60.5 -145.5t-146.5 -57.5q-43 0 -80 15.5t-64.5 42t-44 63.5t-16.5 80zM612 1745q0 -49 35 -83t86 -34 t87 34t36 85t-36 85t-87 34t-86 -35t-35 -86z" />
<glyph unicode="&#xc6;" horiz-adv-x="2078" d="M4 0l936 1450h1014v-178h-678v-434h635v-174h-635v-484h708v-180h-911v393h-580l-247 -393h-242zM600 569h473v703h-29z" />
<glyph unicode="&#xc7;" horiz-adv-x="1449" d="M102 727q0 170 58.5 310.5t162 239.5t244.5 154.5t307 55.5q74 0 149.5 -14.5t145.5 -43t127 -70.5t98 -97l-159 -123q-54 73 -151 121.5t-210 48.5q-127 0 -228.5 -46t-173 -126t-110.5 -185.5t-39 -224.5q0 -123 38 -229.5t108.5 -185.5t172 -124t226.5 -45 q123 0 223.5 49.5t165.5 143.5l162 -111q-82 -110 -213 -182t-311 -78l-70 -106q14 4 26.5 4h28.5q35 0 69 -8.5t61.5 -26.5t45 -49t17.5 -76q0 -53 -24.5 -89t-62.5 -57.5t-84 -29.5t-89 -8q-54 0 -111 12t-100 35l41 86q75 -35 157 -35q17 0 38.5 4t41 13.5t32.5 25.5 t13 43q0 45 -34.5 61.5t-75.5 16.5q-19 0 -41.5 -4t-42.5 -10l-41 40l104 160q-153 13 -280 73t-218.5 160.5t-142.5 234.5t-51 292z" />
<glyph unicode="&#xc8;" horiz-adv-x="1230" d="M176 0v1450h930v-178h-727v-434h684v-174h-684v-484h758v-180h-961zM360 1860h234l205 -295h-158z" />
<glyph unicode="&#xc9;" horiz-adv-x="1230" d="M176 0v1450h930v-178h-727v-434h684v-174h-684v-484h758v-180h-961zM536 1565l203 295h234l-281 -295h-156z" />
<glyph unicode="&#xca;" horiz-adv-x="1230" d="M176 0v1450h930v-178h-727v-434h684v-174h-684v-484h758v-180h-961zM311 1565l230 295h221l229 -295h-186l-154 202l-156 -202h-184z" />
<glyph unicode="&#xcb;" horiz-adv-x="1230" d="M176 0v1450h930v-178h-727v-434h684v-174h-684v-484h758v-180h-961zM323 1731q0 49 36 86.5t91 37.5q54 0 90.5 -35.5t36.5 -88.5q0 -52 -36.5 -87.5t-90.5 -35.5q-55 0 -91 37.5t-36 85.5zM721 1731q0 49 35.5 86.5t91.5 37.5q53 0 90 -35.5t37 -88.5q0 -52 -37 -87.5 t-90 -35.5q-56 0 -91.5 37.5t-35.5 85.5z" />
<glyph unicode="&#xcc;" horiz-adv-x="555" d="M-57 1860h233l205 -295h-157zM176 0v1450h203v-1450h-203z" />
<glyph unicode="&#xcd;" horiz-adv-x="555" d="M174 1565l203 295h233l-280 -295h-156zM176 0v1450h203v-1450h-203z" />
<glyph unicode="&#xce;" horiz-adv-x="555" d="M-65 1565l229 295h222l229 -295h-186l-154 202l-156 -202h-184zM177 0v1450h202v-1450h-202z" />
<glyph unicode="&#xcf;" horiz-adv-x="555" d="M-47 1731q0 49 36 86.5t91 37.5q53 0 90 -35.5t37 -88.5q0 -52 -37 -87.5t-90 -35.5q-55 0 -91 37.5t-36 85.5zM176 0v1450h203v-1450h-203zM350 1731q0 49 36 86.5t91 37.5q54 0 90.5 -35.5t36.5 -88.5q0 -52 -36.5 -87.5t-90.5 -35.5q-55 0 -91 37.5t-36 85.5z" />
<glyph unicode="&#xd0;" horiz-adv-x="1558" d="M26 686v143h141v621h529q139 0 273 -45t240.5 -135t171 -226.5t64.5 -318.5q0 -184 -69.5 -320.5t-180 -226.5t-247 -134t-269.5 -44h-512v686h-141zM372 184h240q143 0 256.5 39t193.5 109.5t123 170t43 222.5t-40 222.5t-115.5 170t-187 109.5t-253.5 39h-260v-437h485 v-143h-485v-502z" />
<glyph unicode="&#xd1;" horiz-adv-x="1581" d="M176 0v1450h264l758 -1159h4v1159h203v-1450h-256l-766 1184h-4v-1184h-203zM432 1581q8 45 21.5 87t38 76t60.5 54.5t89 20.5q39 0 79 -12.5t74 -28.5q41 -19 75 -32t63 -13q45 0 66.5 29.5t31.5 64.5h111q-9 -45 -22 -87t-37.5 -76t-61.5 -54.5t-88 -20.5 q-39 0 -80 13.5t-78 29.5q-37 19 -70.5 31t-62.5 12q-43 0 -64.5 -29.5t-31.5 -64.5h-113z" />
<glyph unicode="&#xd2;" horiz-adv-x="1738" d="M102 727q0 170 57.5 310.5t159.5 239.5t242.5 154.5t306.5 55.5t307 -55.5t243.5 -154.5t161 -239.5t58.5 -310.5q0 -168 -58.5 -308t-161 -241.5t-243.5 -158t-307 -56.5t-306.5 56.5t-242.5 158t-159.5 241.5t-57.5 308zM321 727q0 -121 39 -227.5t110.5 -185t172 -124 t225.5 -45.5t227.5 45.5t174 124t110.5 185t39 227.5q0 119 -39 224.5t-110.5 185.5t-173 126t-228.5 46q-125 0 -226.5 -46t-172 -126t-109.5 -185.5t-39 -224.5zM557 1860h233l205 -295h-158z" />
<glyph unicode="&#xd3;" horiz-adv-x="1738" d="M102 727q0 170 57.5 310.5t159.5 239.5t242.5 154.5t306.5 55.5t307 -55.5t243.5 -154.5t161 -239.5t58.5 -310.5q0 -168 -58.5 -308t-161 -241.5t-243.5 -158t-307 -56.5t-306.5 56.5t-242.5 158t-159.5 241.5t-57.5 308zM321 727q0 -121 39 -227.5t110.5 -185t172 -124 t225.5 -45.5t227.5 45.5t174 124t110.5 185t39 227.5q0 119 -39 224.5t-110.5 185.5t-173 126t-228.5 46q-125 0 -226.5 -46t-172 -126t-109.5 -185.5t-39 -224.5zM759 1565l203 295h234l-281 -295h-156z" />
<glyph unicode="&#xd4;" horiz-adv-x="1738" d="M102 727q0 170 57.5 310.5t159.5 239.5t242.5 154.5t306.5 55.5t307 -55.5t243.5 -154.5t161 -239.5t58.5 -310.5q0 -168 -58.5 -308t-161 -241.5t-243.5 -158t-307 -56.5t-306.5 56.5t-242.5 158t-159.5 241.5t-57.5 308zM321 727q0 -121 39 -227.5t110.5 -185t172 -124 t225.5 -45.5t227.5 45.5t174 124t110.5 185t39 227.5q0 119 -39 224.5t-110.5 185.5t-173 126t-228.5 46q-125 0 -226.5 -46t-172 -126t-109.5 -185.5t-39 -224.5zM528 1565l229 295h222l229 -295h-186l-154 202l-156 -202h-184z" />
<glyph unicode="&#xd5;" horiz-adv-x="1738" d="M102 727q0 170 57.5 310.5t159.5 239.5t242.5 154.5t306.5 55.5t307 -55.5t243.5 -154.5t161 -239.5t58.5 -310.5q0 -168 -58.5 -308t-161 -241.5t-243.5 -158t-307 -56.5t-306.5 56.5t-242.5 158t-159.5 241.5t-57.5 308zM321 727q0 -121 39 -227.5t110.5 -185t172 -124 t225.5 -45.5t227.5 45.5t174 124t110.5 185t39 227.5q0 119 -39 224.5t-110.5 185.5t-173 126t-228.5 46q-125 0 -226.5 -46t-172 -126t-109.5 -185.5t-39 -224.5zM514 1581q8 45 21 87t38 76t60.5 54.5t89.5 20.5q38 0 78 -12.5t75 -28.5q41 -19 75 -32t62 -13 q45 0 66.5 29.5t32.5 64.5h110q-8 -45 -21.5 -87t-38 -76t-61 -54.5t-88.5 -20.5q-39 0 -79.5 13.5t-77.5 29.5q-37 19 -71 31t-62 12q-43 0 -64.5 -29.5t-32.5 -64.5h-112z" />
<glyph unicode="&#xd6;" horiz-adv-x="1738" d="M102 727q0 170 57.5 310.5t159.5 239.5t242.5 154.5t306.5 55.5t307 -55.5t243.5 -154.5t161 -239.5t58.5 -310.5q0 -168 -58.5 -308t-161 -241.5t-243.5 -158t-307 -56.5t-306.5 56.5t-242.5 158t-159.5 241.5t-57.5 308zM321 727q0 -121 39 -227.5t110.5 -185t172 -124 t225.5 -45.5t227.5 45.5t174 124t110.5 185t39 227.5q0 119 -39 224.5t-110.5 185.5t-173 126t-228.5 46q-125 0 -226.5 -46t-172 -126t-109.5 -185.5t-39 -224.5zM542 1731q0 49 36 86.5t91 37.5q54 0 90.5 -35.5t36.5 -88.5q0 -52 -36.5 -87.5t-90.5 -35.5q-55 0 -91 37.5 t-36 85.5zM940 1731q0 49 35.5 86.5t91.5 37.5q53 0 90 -35.5t37 -88.5q0 -52 -37 -87.5t-90 -35.5q-56 0 -91.5 37.5t-35.5 85.5z" />
<glyph unicode="&#xd7;" horiz-adv-x="1363" d="M212 268l352 348l-350 357l117 114l350 -350l348 350l117 -114l-348 -350l352 -355l-121 -118l-350 348l-348 -348z" />
<glyph unicode="&#xd8;" horiz-adv-x="1738" d="M102 727q0 170 57.5 310.5t159.5 239.5t242.5 154.5t306.5 55.5q135 0 255 -37t216 -109l166 179l88 -80l-162 -176q98 -101 152.5 -236t54.5 -301q0 -168 -58.5 -307t-161 -240.5t-243.5 -158t-307 -58.5q-143 0 -266 42t-221 120l-166 -178l-88 80l165 180 q-92 98 -141 231t-49 289zM315 727q0 -223 117 -371l780 842q-63 53 -150.5 83t-193.5 30q-129 0 -231.5 -46t-174 -125t-109.5 -185.5t-38 -227.5zM514 266q67 -59 155 -92t199 -33q127 0 230.5 46t176 125t111.5 185.5t39 229.5q0 111 -31.5 210t-95.5 177z" />
<glyph unicode="&#xd9;" horiz-adv-x="1458" d="M165 537v913h203v-901q0 -74 18.5 -146.5t60.5 -130t110.5 -92.5t170.5 -35q101 0 170.5 35t111.5 92.5t60.5 130t18.5 146.5v901h202v-913q0 -111 -33.5 -214.5t-103 -183.5t-176 -128t-250.5 -48q-143 0 -249.5 48t-176 128t-103.5 183.5t-34 214.5zM380 1860h234 l204 -295h-157z" />
<glyph unicode="&#xda;" horiz-adv-x="1458" d="M165 537v913h203v-901q0 -74 18.5 -146.5t60.5 -130t110.5 -92.5t170.5 -35q101 0 170.5 35t111.5 92.5t60.5 130t18.5 146.5v901h202v-913q0 -111 -33.5 -214.5t-103 -183.5t-176 -128t-250.5 -48q-143 0 -249.5 48t-176 128t-103.5 183.5t-34 214.5zM603 1565l203 295 h233l-280 -295h-156z" />
<glyph unicode="&#xdb;" horiz-adv-x="1458" d="M165 537v913h203v-901q0 -74 18.5 -146.5t60.5 -130t110.5 -92.5t170.5 -35q101 0 170.5 35t111.5 92.5t60.5 130t18.5 146.5v901h202v-913q0 -111 -33.5 -214.5t-103 -183.5t-176 -128t-250.5 -48q-143 0 -249.5 48t-176 128t-103.5 183.5t-34 214.5zM384 1565l230 295 h221l229 -295h-186l-154 202l-156 -202h-184z" />
<glyph unicode="&#xdc;" horiz-adv-x="1458" d="M165 537v913h203v-901q0 -74 18.5 -146.5t60.5 -130t110.5 -92.5t170.5 -35q101 0 170.5 35t111.5 92.5t60.5 130t18.5 146.5v901h202v-913q0 -111 -33.5 -214.5t-103 -183.5t-176 -128t-250.5 -48q-143 0 -249.5 48t-176 128t-103.5 183.5t-34 214.5zM403 1731 q0 49 35.5 86.5t91.5 37.5q53 0 90 -35.5t37 -88.5q0 -52 -37 -87.5t-90 -35.5q-56 0 -91.5 37.5t-35.5 85.5zM800 1731q0 49 36 86.5t91 37.5q53 0 90 -35.5t37 -88.5q0 -52 -37 -87.5t-90 -35.5q-55 0 -91 37.5t-36 85.5z" />
<glyph unicode="&#xdd;" horiz-adv-x="1277" d="M-6 1450h250l401 -655l404 655h235l-542 -823v-627h-205v627zM551 1565l203 295h233l-280 -295h-156z" />
<glyph unicode="&#xde;" d="M176 0v1450h203v-299h239q117 0 213.5 -24.5t164 -75t104.5 -126t37 -177.5q0 -111 -40 -189t-111 -127t-168 -71.5t-210 -22.5h-229v-338h-203zM379 512h209q73 0 135.5 12.5t107.5 40t70 71.5t25 109q0 64 -26 108t-70 71.5t-105.5 40t-132.5 12.5h-213v-465z" />
<glyph unicode="&#xdf;" horiz-adv-x="1253" d="M163 0v1075q0 92 23.5 182.5t78 160t143.5 112.5t220 43q88 0 164 -27.5t132 -78t88 -120t32 -155.5q0 -115 -60.5 -198t-167.5 -117v-5q78 -12 141.5 -46.5t107.5 -89t68.5 -126t24.5 -155.5q0 -107 -34.5 -195t-99 -151.5t-157 -98.5t-206.5 -35q-70 0 -146 17v162 q23 -7 58.5 -11t62.5 -4q148 0 236 86t88 238q0 80 -27 140.5t-75 99t-112.5 58t-140.5 19.5h-22v168h22q109 0 177.5 57.5t68.5 168.5q0 100 -62.5 164.5t-168.5 64.5q-82 0 -133.5 -32t-81 -81t-39.5 -108.5t-10 -114.5v-1067h-193z" />
<glyph unicode="&#xe0;" horiz-adv-x="1110" d="M94 274q0 111 59.5 175.5t155.5 98.5t217 44t244 10v27q0 108 -65.5 160.5t-174.5 52.5q-82 0 -154.5 -32t-121.5 -81l-103 123q72 68 175.5 106.5t222.5 38.5q104 0 181 -29.5t126 -80.5t73.5 -121t24.5 -150v-423q0 -50 3 -104t11 -89h-174q-16 70 -16 139h-6 q-53 -78 -134 -121t-192 -43q-57 0 -119.5 15.5t-113.5 50.5t-85 92t-34 141zM246 1450h231l205 -295h-158zM291 279q0 -43 17 -72t46 -47.5t63.5 -25.5t71.5 -7q135 0 208 81t73 204v51h-47q-72 0 -149 -6t-139 -24.5t-103 -55.5t-41 -98z" />
<glyph unicode="&#xe1;" horiz-adv-x="1110" d="M94 274q0 111 59.5 175.5t155.5 98.5t217 44t244 10v27q0 108 -65.5 160.5t-174.5 52.5q-82 0 -154.5 -32t-121.5 -81l-103 123q72 68 175.5 106.5t222.5 38.5q104 0 181 -29.5t126 -80.5t73.5 -121t24.5 -150v-423q0 -50 3 -104t11 -89h-174q-16 70 -16 139h-6 q-53 -78 -134 -121t-192 -43q-57 0 -119.5 15.5t-113.5 50.5t-85 92t-34 141zM291 279q0 -43 17 -72t46 -47.5t63.5 -25.5t71.5 -7q135 0 208 81t73 204v51h-47q-72 0 -149 -6t-139 -24.5t-103 -55.5t-41 -98zM465 1155l204 295h232l-279 -295h-157z" />
<glyph unicode="&#xe2;" horiz-adv-x="1110" d="M94 274q0 111 59.5 175.5t155.5 98.5t217 44t244 10v27q0 108 -65.5 160.5t-174.5 52.5q-82 0 -154.5 -32t-121.5 -81l-103 123q72 68 175.5 106.5t222.5 38.5q104 0 181 -29.5t126 -80.5t73.5 -121t24.5 -150v-423q0 -50 3 -104t11 -89h-174q-16 70 -16 139h-6 q-53 -78 -134 -121t-192 -43q-57 0 -119.5 15.5t-113.5 50.5t-85 92t-34 141zM209 1155l229 295h221l230 -295h-187l-153 203l-156 -203h-184zM291 279q0 -43 17 -72t46 -47.5t63.5 -25.5t71.5 -7q135 0 208 81t73 204v51h-47q-72 0 -149 -6t-139 -24.5t-103 -55.5t-41 -98z " />
<glyph unicode="&#xe3;" horiz-adv-x="1110" d="M94 274q0 111 59.5 175.5t155.5 98.5t217 44t244 10v27q0 108 -65.5 160.5t-174.5 52.5q-82 0 -154.5 -32t-121.5 -81l-103 123q72 68 175.5 106.5t222.5 38.5q104 0 181 -29.5t126 -80.5t73.5 -121t24.5 -150v-423q0 -50 3 -104t11 -89h-174q-16 70 -16 139h-6 q-53 -78 -134 -121t-192 -43q-57 0 -119.5 15.5t-113.5 50.5t-85 92t-34 141zM194 1171q9 46 22 87.5t37.5 75.5t60.5 54.5t89 20.5q39 0 79 -12.5t75 -28.5q41 -18 74.5 -31.5t62.5 -13.5q45 0 66.5 29.5t31.5 64.5h111q-8 -45 -21.5 -87t-38 -75.5t-61.5 -54t-88 -20.5 q-39 0 -80 13t-78 30q-36 18 -70 30.5t-63 12.5q-43 0 -64.5 -30t-31.5 -65h-113zM291 279q0 -43 17 -72t46 -47.5t63.5 -25.5t71.5 -7q135 0 208 81t73 204v51h-47q-72 0 -149 -6t-139 -24.5t-103 -55.5t-41 -98z" />
<glyph unicode="&#xe4;" horiz-adv-x="1110" d="M94 274q0 111 59.5 175.5t155.5 98.5t217 44t244 10v27q0 108 -65.5 160.5t-174.5 52.5q-82 0 -154.5 -32t-121.5 -81l-103 123q72 68 175.5 106.5t222.5 38.5q104 0 181 -29.5t126 -80.5t73.5 -121t24.5 -150v-423q0 -50 3 -104t11 -89h-174q-16 70 -16 139h-6 q-53 -78 -134 -121t-192 -43q-57 0 -119.5 15.5t-113.5 50.5t-85 92t-34 141zM225 1321q0 49 36 87t91 38q53 0 90 -36t37 -89q0 -51 -37 -87t-90 -36q-55 0 -91 38t-36 85zM291 279q0 -43 17 -72t46 -47.5t63.5 -25.5t71.5 -7q135 0 208 81t73 204v51h-47q-72 0 -149 -6 t-139 -24.5t-103 -55.5t-41 -98zM622 1321q0 49 36 87t91 38q54 0 90.5 -36t36.5 -89q0 -51 -36.5 -87t-90.5 -36q-55 0 -91 38t-36 85z" />
<glyph unicode="&#xe5;" horiz-adv-x="1110" d="M94 274q0 111 59.5 175.5t155.5 98.5t217 44t244 10v27q0 108 -65.5 160.5t-174.5 52.5q-82 0 -154.5 -32t-121.5 -81l-103 123q72 68 175.5 106.5t222.5 38.5q104 0 181 -29.5t126 -80.5t73.5 -121t24.5 -150v-423q0 -50 3 -104t11 -89h-174q-16 70 -16 139h-6 q-53 -78 -134 -121t-192 -43q-57 0 -119.5 15.5t-113.5 50.5t-85 92t-34 141zM291 279q0 -43 17 -72t46 -47.5t63.5 -25.5t71.5 -7q135 0 208 81t73 204v51h-47q-72 0 -149 -6t-139 -24.5t-103 -55.5t-41 -98zM344 1335q0 88 59.5 145.5t145.5 57.5t146.5 -57.5t60.5 -143.5 q0 -88 -60.5 -145t-146.5 -57q-43 0 -80 15t-64.5 42t-44 63.5t-16.5 79.5zM430 1337q0 -49 36 -82.5t83 -33.5q49 0 84.5 32.5t35.5 83.5q0 49 -35.5 82t-84.5 33q-47 0 -83 -33t-36 -82z" />
<glyph unicode="&#xe6;" horiz-adv-x="1796" d="M94 248q0 106 49 170.5t138 98.5t213 44t276 10v23q0 137 -65.5 192.5t-174.5 55.5q-82 0 -154.5 -32t-121.5 -81l-103 123q72 68 175.5 106.5t222.5 38.5q82 0 141 -17t99 -44t63.5 -58.5t36.5 -60.5q57 80 141 130t213 50q104 0 188 -34.5t142.5 -100t90.5 -159 t32 -209.5v-33.5t-3 -32.5h-745q2 -61 26.5 -115.5t66.5 -94.5t96.5 -62.5t115.5 -22.5q96 0 165 43t110 105l129 -109q-76 -102 -177.5 -150.5t-226.5 -48.5q-129 0 -233.5 52.5t-161.5 148.5q-59 -111 -169 -155t-243 -44q-57 0 -119.5 13.5t-113.5 44t-85 83t-34 132.5z M291 272q0 -43 17 -70.5t45 -45t63.5 -24.5t74.5 -7q135 0 205 67.5t70 184.5v51h-49q-91 0 -168.5 -5t-135 -21.5t-90 -47t-32.5 -82.5zM946 571h557q0 58 -17.5 108t-50 87t-82 58.5t-112.5 21.5q-60 0 -112 -21.5t-92 -58.5t-64.5 -87t-26.5 -108z" />
<glyph unicode="&#xe7;" horiz-adv-x="1011" d="M102 485q0 115 39 209t108.5 162t165 104.5t205.5 36.5q103 0 204 -41t161 -118l-140 -113q-30 47 -91.5 79t-131.5 32q-76 0 -134 -29t-99 -77t-62.5 -111.5t-21.5 -133.5q0 -69 21.5 -132.5t62.5 -111.5t100 -77t135 -29q74 0 134.5 29t99.5 78l129 -117 q-60 -68 -144 -108t-194 -44l-76 -114q14 4 26.5 4h28.5q35 0 69 -8.5t61.5 -26.5t45 -49t17.5 -76q0 -53 -24.5 -89t-62.5 -57.5t-84 -29.5t-89 -8q-53 0 -110.5 12t-100.5 35l41 86q76 -35 157 -35q17 0 38.5 4t41 13.5t32.5 25.5t13 43q0 45 -34.5 61.5t-75.5 16.5 q-19 0 -41.5 -4t-42.5 -10l-41 40l113 170q-99 13 -181 54t-142 106.5t-93 153.5t-33 194z" />
<glyph unicode="&#xe8;" horiz-adv-x="1173" d="M102 483q0 113 38 208t105.5 163t159.5 105.5t199 37.5q106 0 193 -34.5t147.5 -100t93.5 -159t33 -209.5v-33.5t-2 -32.5h-770q2 -61 27.5 -115.5t68.5 -94.5t99.5 -62.5t119.5 -22.5q98 0 170 43t113 105l135 -109q-78 -102 -183.5 -150.5t-234.5 -48.5q-111 0 -205 37 t-161.5 103.5t-106.5 161t-39 208.5zM274 1450h231l205 -295h-157zM299 571h577q-2 58 -19.5 108t-51 87t-84 58.5t-117.5 21.5q-62 0 -116 -21.5t-94 -58.5t-65.5 -87t-29.5 -108z" />
<glyph unicode="&#xe9;" horiz-adv-x="1173" d="M102 483q0 113 38 208t105.5 163t159.5 105.5t199 37.5q106 0 193 -34.5t147.5 -100t93.5 -159t33 -209.5v-33.5t-2 -32.5h-770q2 -61 27.5 -115.5t68.5 -94.5t99.5 -62.5t119.5 -22.5q98 0 170 43t113 105l135 -109q-78 -102 -183.5 -150.5t-234.5 -48.5q-111 0 -205 37 t-161.5 103.5t-106.5 161t-39 208.5zM299 571h577q-2 58 -19.5 108t-51 87t-84 58.5t-117.5 21.5q-62 0 -116 -21.5t-94 -58.5t-65.5 -87t-29.5 -108zM501 1155l205 295h232l-279 -295h-158z" />
<glyph unicode="&#xea;" horiz-adv-x="1173" d="M102 483q0 113 38 208t105.5 163t159.5 105.5t199 37.5q106 0 193 -34.5t147.5 -100t93.5 -159t33 -209.5v-33.5t-2 -32.5h-770q2 -61 27.5 -115.5t68.5 -94.5t99.5 -62.5t119.5 -22.5q98 0 170 43t113 105l135 -109q-78 -102 -183.5 -150.5t-234.5 -48.5q-111 0 -205 37 t-161.5 103.5t-106.5 161t-39 208.5zM276 1155l229 295h222l229 -295h-186l-154 203l-156 -203h-184zM299 571h577q-2 58 -19.5 108t-51 87t-84 58.5t-117.5 21.5q-62 0 -116 -21.5t-94 -58.5t-65.5 -87t-29.5 -108z" />
<glyph unicode="&#xeb;" horiz-adv-x="1173" d="M102 483q0 113 38 208t105.5 163t159.5 105.5t199 37.5q106 0 193 -34.5t147.5 -100t93.5 -159t33 -209.5v-33.5t-2 -32.5h-770q2 -61 27.5 -115.5t68.5 -94.5t99.5 -62.5t119.5 -22.5q98 0 170 43t113 105l135 -109q-78 -102 -183.5 -150.5t-234.5 -48.5q-111 0 -205 37 t-161.5 103.5t-106.5 161t-39 208.5zM288 1321q0 49 36 87t91 38q54 0 90.5 -36t36.5 -89q0 -51 -36.5 -87t-90.5 -36q-55 0 -91 38t-36 85zM299 571h577q-2 58 -19.5 108t-51 87t-84 58.5t-117.5 21.5q-62 0 -116 -21.5t-94 -58.5t-65.5 -87t-29.5 -108zM686 1321 q0 49 35.5 87t91.5 38q53 0 90 -36t37 -89q0 -51 -37 -87t-90 -36q-56 0 -91.5 38t-35.5 85z" />
<glyph unicode="&#xec;" horiz-adv-x="530" d="M-73 1450h231l205 -295h-157zM169 0v971h192v-971h-192z" />
<glyph unicode="&#xed;" horiz-adv-x="530" d="M167 0v971h193v-971h-193zM167 1155l205 295h231l-278 -295h-158z" />
<glyph unicode="&#xee;" horiz-adv-x="530" d="M-73 1155l229 295h222l229 -295h-186l-154 203l-156 -203h-184zM169 0v971h192v-971h-192z" />
<glyph unicode="&#xef;" horiz-adv-x="530" d="M-59 1321q0 49 36 87t91 38q53 0 90 -36t37 -89q0 -51 -37 -87t-90 -36q-55 0 -91 38t-36 85zM168 0v971h193v-971h-193zM338 1321q0 49 36 87t91 38q54 0 90.5 -36t36.5 -89q0 -51 -36.5 -87t-90.5 -36q-55 0 -91 38t-36 85z" />
<glyph unicode="&#xf0;" horiz-adv-x="1249" d="M94 485q0 113 39 207t108.5 162t164 105.5t202.5 37.5q78 0 142.5 -23.5t123.5 -76.5l4 4q-53 103 -126.5 199t-161.5 170l-226 -109l-98 96l225 109q-41 39 -90 76t-92 67l158 97q53 -41 104 -84t86 -76l221 108l107 -94l-225 -110q77 -80 147 -172.5t121 -195.5 t80.5 -215t29.5 -230q0 -109 -30.5 -211.5t-94 -180t-163 -125t-234.5 -47.5q-112 0 -208.5 38t-166 105.5t-108.5 162t-39 206.5zM291 485q0 -69 21.5 -131.5t62.5 -110.5t102 -77t139 -29t138.5 29t101.5 77t62.5 110.5t21.5 131.5q0 70 -21.5 132.5t-62.5 110.5 t-101.5 77t-138.5 29t-139 -29t-102 -77t-62.5 -110.5t-21.5 -132.5z" />
<glyph unicode="&#xf1;" horiz-adv-x="1191" d="M157 971h182q4 -37 6 -83t2 -77h7q18 39 50 73t72.5 59.5t90 39.5t102.5 14q94 0 161.5 -31.5t112.5 -85t66.5 -125t21.5 -153.5v-602h-192v539q0 59 -9 112.5t-34 94t-68 65.5t-110 25q-115 0 -187.5 -87t-72.5 -233v-516h-193v762q0 39 -2 100.5t-6 108.5zM247 1171 q8 46 21.5 87.5t38 75.5t60.5 54.5t89 20.5q39 0 79 -12.5t75 -28.5q41 -18 74.5 -31.5t62.5 -13.5q45 0 66.5 29.5t31.5 64.5h111q-8 -45 -21.5 -87t-38 -75.5t-61.5 -54t-88 -20.5q-39 0 -80 13t-78 30q-37 18 -70.5 30.5t-62.5 12.5q-43 0 -64.5 -30t-31.5 -65h-113z" />
<glyph unicode="&#xf2;" horiz-adv-x="1249" d="M102 487q0 113 40 206t109.5 161t166 105.5t206.5 37.5q111 0 207 -37.5t167 -105.5t111 -161t40 -206q0 -112 -40 -206.5t-111 -163t-167 -106.5t-207 -38q-110 0 -206.5 38t-166 106.5t-109.5 163t-40 206.5zM301 487q0 -69 21.5 -132.5t62.5 -112.5t101 -78t138 -29 t138.5 29t101.5 78t62.5 112.5t21.5 132.5q0 70 -21.5 133.5t-62.5 111.5t-101.5 77t-138.5 29t-138 -29t-101 -77t-62.5 -111.5t-21.5 -133.5zM301 1450h231l205 -295h-158z" />
<glyph unicode="&#xf3;" horiz-adv-x="1249" d="M102 487q0 113 40 206t109.5 161t166 105.5t206.5 37.5q111 0 207 -37.5t167 -105.5t111 -161t40 -206q0 -112 -40 -206.5t-111 -163t-167 -106.5t-207 -38q-110 0 -206.5 38t-166 106.5t-109.5 163t-40 206.5zM301 487q0 -69 21.5 -132.5t62.5 -112.5t101 -78t138 -29 t138.5 29t101.5 78t62.5 112.5t21.5 132.5q0 70 -21.5 133.5t-62.5 111.5t-101.5 77t-138.5 29t-138 -29t-101 -77t-62.5 -111.5t-21.5 -133.5zM508 1155l204 295h232l-279 -295h-157z" />
<glyph unicode="&#xf4;" horiz-adv-x="1249" d="M102 487q0 113 40 206t109.5 161t166 105.5t206.5 37.5q111 0 207 -37.5t167 -105.5t111 -161t40 -206q0 -112 -40 -206.5t-111 -163t-167 -106.5t-207 -38q-110 0 -206.5 38t-166 106.5t-109.5 163t-40 206.5zM286 1155l230 295h221l229 -295h-186l-154 203l-155 -203 h-185zM301 487q0 -69 21.5 -132.5t62.5 -112.5t101 -78t138 -29t138.5 29t101.5 78t62.5 112.5t21.5 132.5q0 70 -21.5 133.5t-62.5 111.5t-101.5 77t-138.5 29t-138 -29t-101 -77t-62.5 -111.5t-21.5 -133.5z" />
<glyph unicode="&#xf5;" horiz-adv-x="1249" d="M102 487q0 113 40 206t109.5 161t166 105.5t206.5 37.5q111 0 207 -37.5t167 -105.5t111 -161t40 -206q0 -112 -40 -206.5t-111 -163t-167 -106.5t-207 -38q-110 0 -206.5 38t-166 106.5t-109.5 163t-40 206.5zM272 1171q8 46 21.5 87.5t38 75.5t60.5 54.5t89 20.5 q39 0 79 -12.5t74 -28.5q41 -18 75 -31.5t63 -13.5q45 0 66.5 29.5t31.5 64.5h111q-9 -45 -22 -87t-37.5 -75.5t-61.5 -54t-88 -20.5q-39 0 -80 13t-78 30q-37 18 -70.5 30.5t-62.5 12.5q-43 0 -64.5 -30t-31.5 -65h-113zM301 487q0 -69 21.5 -132.5t62.5 -112.5t101 -78 t138 -29t138.5 29t101.5 78t62.5 112.5t21.5 132.5q0 70 -21.5 133.5t-62.5 111.5t-101.5 77t-138.5 29t-138 -29t-101 -77t-62.5 -111.5t-21.5 -133.5z" />
<glyph unicode="&#xf6;" horiz-adv-x="1249" d="M102 487q0 113 40 206t109.5 161t166 105.5t206.5 37.5q111 0 207 -37.5t167 -105.5t111 -161t40 -206q0 -112 -40 -206.5t-111 -163t-167 -106.5t-207 -38q-110 0 -206.5 38t-166 106.5t-109.5 163t-40 206.5zM301 487q0 -69 21.5 -132.5t62.5 -112.5t101 -78t138 -29 t138.5 29t101.5 78t62.5 112.5t21.5 132.5q0 70 -21.5 133.5t-62.5 111.5t-101.5 77t-138.5 29t-138 -29t-101 -77t-62.5 -111.5t-21.5 -133.5zM301 1321q0 49 35.5 87t91.5 38q53 0 90 -36t37 -89q0 -51 -37 -87t-90 -36q-56 0 -91.5 38t-35.5 85zM698 1321q0 49 36 87 t91 38q53 0 90 -36t37 -89q0 -51 -37 -87t-90 -36q-55 0 -91 38t-36 85z" />
<glyph unicode="&#xf7;" horiz-adv-x="1363" d="M143 537v168h1077v-168h-1077zM549 270q0 54 37.5 93.5t95.5 39.5q57 0 95 -39.5t38 -93.5q0 -53 -38 -93t-95 -40q-58 0 -95.5 40t-37.5 93zM549 961q0 53 37.5 93t95.5 40q57 0 95 -40t38 -93q0 -54 -38 -94t-95 -40q-58 0 -95.5 40t-37.5 94z" />
<glyph unicode="&#xf8;" horiz-adv-x="1249" d="M86 10l135 140q-57 65 -88 150t-31 185q0 113 40 207t110 162t166 105.5t207 37.5q190 0 323 -104l139 143l76 -71l-137 -144q57 -65 90 -150t33 -186q0 -112 -40 -206.5t-110.5 -162t-167 -105.5t-206.5 -38q-97 0 -178.5 28t-147.5 77l-139 -141zM295 485 q0 -57 14.5 -112.5t42.5 -93.5l479 493q-36 35 -91.5 53.5t-114.5 18.5q-80 0 -141.5 -30t-103.5 -80t-63.5 -114.5t-21.5 -134.5zM416 201q84 -72 207 -72q81 0 143.5 29.5t104.5 80t63.5 115t21.5 133.5q0 56 -15 111t-44 94z" />
<glyph unicode="&#xf9;" horiz-adv-x="1191" d="M157 369v602h193v-537q0 -59 9 -113.5t33.5 -95.5t67.5 -65.5t111 -24.5q116 0 188 87t72 233v516h192v-762q0 -39 2 -100.5t6 -108.5h-182q-4 37 -6 83t-2 77h-4q-37 -78 -124 -132.5t-194 -54.5q-94 0 -162.5 31t-112.5 85t-65.5 126t-21.5 154zM268 1450h231l205 -295 h-158z" />
<glyph unicode="&#xfa;" horiz-adv-x="1191" d="M157 369v602h193v-537q0 -59 9 -113.5t33.5 -95.5t67.5 -65.5t111 -24.5q116 0 188 87t72 233v516h192v-762q0 -39 2 -100.5t6 -108.5h-182q-4 37 -6 83t-2 77h-4q-37 -78 -124 -132.5t-194 -54.5q-94 0 -162.5 31t-112.5 85t-65.5 126t-21.5 154zM489 1155l205 295h231 l-279 -295h-157z" />
<glyph unicode="&#xfb;" horiz-adv-x="1191" d="M157 369v602h193v-537q0 -59 9 -113.5t33.5 -95.5t67.5 -65.5t111 -24.5q116 0 188 87t72 233v516h192v-762q0 -39 2 -100.5t6 -108.5h-182q-4 37 -6 83t-2 77h-4q-37 -78 -124 -132.5t-194 -54.5q-94 0 -162.5 31t-112.5 85t-65.5 126t-21.5 154zM255 1155l230 295h221 l229 -295h-186l-154 203l-155 -203h-185z" />
<glyph unicode="&#xfc;" horiz-adv-x="1191" d="M157 369v602h193v-537q0 -59 9 -113.5t33.5 -95.5t67.5 -65.5t111 -24.5q116 0 188 87t72 233v516h192v-762q0 -39 2 -100.5t6 -108.5h-182q-4 37 -6 83t-2 77h-4q-37 -78 -124 -132.5t-194 -54.5q-94 0 -162.5 31t-112.5 85t-65.5 126t-21.5 154zM268 1321q0 49 35.5 87 t91.5 38q53 0 90 -36t37 -89q0 -51 -37 -87t-90 -36q-56 0 -91.5 38t-35.5 85zM665 1321q0 49 36 87t91 38q53 0 90 -36t37 -89q0 -51 -37 -87t-90 -36q-55 0 -91 38t-36 85z" />
<glyph unicode="&#xfd;" horiz-adv-x="1032" d="M18 971h215l301 -762h4l268 762h205l-471 -1200q-24 -62 -53 -110t-68 -82t-91 -52.5t-124 -18.5q-30 0 -62 3.5t-65 11.5l19 170q49 -17 96 -17q76 0 113 42t67 120l62 162zM428 1155l204 295h232l-279 -295h-157z" />
<glyph unicode="&#xfe;" horiz-adv-x="1302" d="M167 -492v2040h190v-729h7q45 78 135 128t211 50q108 0 197 -38.5t153.5 -108.5t99.5 -163t35 -200q0 -106 -35 -200t-98.5 -164t-153.5 -110t-202 -40q-105 0 -197 45t-145 127h-7v-637h-190zM345 485q0 -69 23.5 -132.5t66.5 -111.5t103.5 -77t134.5 -29q80 0 140.5 30 t101 79t61 112.5t20.5 130.5q0 68 -20.5 131.5t-61 112.5t-101 78t-140.5 29q-74 0 -134.5 -29t-103.5 -78t-66.5 -112.5t-23.5 -133.5z" />
<glyph unicode="&#xff;" horiz-adv-x="1032" d="M18 971h215l301 -762h4l268 762h205l-471 -1200q-24 -62 -53 -110t-68 -82t-91 -52.5t-124 -18.5q-30 0 -62 3.5t-65 11.5l19 170q49 -17 96 -17q76 0 113 42t67 120l62 162zM206 1321q0 49 36 87t91 38q54 0 90.5 -36t36.5 -89q0 -51 -36.5 -87t-90.5 -36q-55 0 -91 38 t-36 85zM604 1321q0 49 35.5 87t91.5 38q53 0 90 -36t37 -89q0 -51 -37 -87t-90 -36q-56 0 -91.5 38t-35.5 85z" />
<glyph unicode="&#x152;" horiz-adv-x="2054" d="M102 725q0 193 69.5 330t182.5 225t252 129t278 41h1045v-178h-678v-434h635v-174h-635v-484h709v-180h-1076q-139 0 -278 44t-252 133t-182.5 225.5t-69.5 322.5zM319 725q0 -129 45 -230.5t126 -171t192.5 -106.5t242.5 -37h123v1092h-123q-131 0 -242.5 -35 t-192.5 -104.5t-126 -171t-45 -236.5z" />
<glyph unicode="&#x153;" horiz-adv-x="1996" d="M102 487q0 113 39 206t107.5 161t164 105.5t205.5 37.5q135 0 242.5 -57t171.5 -154q63 95 164.5 153t232.5 58q109 0 195 -34.5t146.5 -100t93 -159t32.5 -209.5v-33.5t-2 -32.5h-772q4 -63 29.5 -116.5t68.5 -93.5t99.5 -62.5t119.5 -22.5q101 0 171.5 43t111.5 105 l133 -109q-154 -199 -418 -199q-135 0 -240.5 56.5t-166.5 152.5q-64 -96 -170.5 -152.5t-241.5 -56.5q-110 0 -205.5 38t-164 106.5t-107.5 163t-39 206.5zM299 487q0 -69 21.5 -132.5t62.5 -112.5t102 -78t139 -29t138.5 29t101.5 78t62.5 112.5t21.5 132.5 q0 70 -21.5 133.5t-62.5 111.5t-101.5 77t-138.5 29t-139 -29t-102 -77t-62.5 -111.5t-21.5 -133.5zM1124 571h580q-3 58 -20 108t-52 87t-85 58.5t-118 21.5q-61 0 -115.5 -21.5t-94.5 -58.5t-65.5 -87t-29.5 -108z" />
<glyph unicode="&#x178;" horiz-adv-x="1277" d="M-6 1450h250l401 -655l404 655h235l-542 -823v-627h-205v627zM320 1731q0 49 35.5 86.5t91.5 37.5q53 0 90 -35.5t37 -88.5q0 -52 -37 -87.5t-90 -35.5q-56 0 -91.5 37.5t-35.5 85.5zM717 1731q0 49 36 86.5t91 37.5q53 0 90 -35.5t37 -88.5q0 -52 -37 -87.5t-90 -35.5 q-55 0 -91 37.5t-36 85.5z" />
<glyph unicode="&#x2c6;" horiz-adv-x="512" d="M-83 1155l229 295h222l229 -295h-186l-154 203l-156 -203h-184z" />
<glyph unicode="&#x2dc;" horiz-adv-x="512" d="M-98 1171q8 46 21.5 87.5t38 75.5t60.5 54.5t89 20.5q39 0 79 -12.5t74 -28.5q41 -18 75 -31.5t63 -13.5q45 0 66.5 29.5t31.5 64.5h111q-9 -45 -22 -87t-37.5 -75.5t-61.5 -54t-88 -20.5q-39 0 -80 13t-78 30q-37 18 -70.5 30.5t-62.5 12.5q-43 0 -64.5 -30t-31.5 -65 h-113z" />
<glyph unicode="&#x2000;" horiz-adv-x="974" />
<glyph unicode="&#x2001;" horiz-adv-x="1948" />
<glyph unicode="&#x2002;" horiz-adv-x="974" />
<glyph unicode="&#x2003;" horiz-adv-x="1948" />
<glyph unicode="&#x2004;" horiz-adv-x="649" />
<glyph unicode="&#x2005;" horiz-adv-x="487" />
<glyph unicode="&#x2006;" horiz-adv-x="324" />
<glyph unicode="&#x2007;" horiz-adv-x="324" />
<glyph unicode="&#x2008;" horiz-adv-x="243" />
<glyph unicode="&#x2009;" horiz-adv-x="389" />
<glyph unicode="&#x200a;" horiz-adv-x="108" />
<glyph unicode="&#x2010;" horiz-adv-x="655" d="M90 418v164h475v-164h-475z" />
<glyph unicode="&#x2011;" horiz-adv-x="655" d="M90 418v164h475v-164h-475z" />
<glyph unicode="&#x2012;" horiz-adv-x="655" d="M90 418v164h475v-164h-475z" />
<glyph unicode="&#x2013;" horiz-adv-x="819" d="M61 424v154h696v-154h-696z" />
<glyph unicode="&#x2014;" horiz-adv-x="1228" d="M61 424v154h1106v-154h-1106z" />
<glyph unicode="&#x2018;" horiz-adv-x="503" d="M86 938l170 512h162l-139 -512h-193z" />
<glyph unicode="&#x2019;" horiz-adv-x="503" d="M86 938l141 512h191l-170 -512h-162z" />
<glyph unicode="&#x201a;" horiz-adv-x="503" d="M86 -272l141 512h191l-170 -512h-162z" />
<glyph unicode="&#x201c;" horiz-adv-x="872" d="M86 938l170 512h162l-139 -512h-193zM455 938l170 512h161l-139 -512h-192z" />
<glyph unicode="&#x201d;" horiz-adv-x="872" d="M86 938l141 512h191l-170 -512h-162zM455 938l141 512h190l-170 -512h-161z" />
<glyph unicode="&#x201e;" horiz-adv-x="872" d="M86 -272l141 512h191l-170 -512h-162zM455 -272l141 512h190l-170 -512h-161z" />
<glyph unicode="&#x2022;" horiz-adv-x="1024" d="M149 725q0 76 28.5 141.5t78 114.5t115 77.5t140.5 28.5q76 0 141.5 -28.5t115 -77.5t78 -114.5t28.5 -141.5t-28.5 -141.5t-78 -114.5t-115 -78t-141.5 -29q-75 0 -140.5 29t-115 78t-78 114.5t-28.5 141.5z" />
<glyph unicode="&#x2026;" horiz-adv-x="2048" d="M178 143q0 66 48 113t116 47q65 0 114.5 -45t49.5 -111q0 -65 -48.5 -112t-115.5 -47q-33 0 -62.5 12t-52 32.5t-36 49.5t-13.5 61zM860 143q0 66 48 113t116 47q65 0 114.5 -45t49.5 -111q0 -65 -48.5 -112t-115.5 -47q-33 0 -62.5 12t-52 32.5t-36 49.5t-13.5 61z M1542 143q0 66 48 113t116 47q65 0 114.5 -45t49.5 -111q0 -65 -48.5 -112t-115.5 -47q-33 0 -62.5 12t-52 32.5t-36 49.5t-13.5 61z" />
<glyph unicode="&#x202f;" horiz-adv-x="389" />
<glyph unicode="&#x2039;" horiz-adv-x="610" d="M81 500l299 444l127 -86l-236 -358l236 -359l-127 -88z" />
<glyph unicode="&#x203a;" horiz-adv-x="610" d="M102 858l127 86l299 -446l-299 -445l-125 88l236 357z" />
<glyph unicode="&#x205f;" horiz-adv-x="487" />
<glyph unicode="&#x20ac;" d="M28 469l49 145h96q-2 23 -3 50.5t-1 52.5q0 28 1 61t5 56h-143l51 145h115q29 119 87 213t139 159.5t183.5 100.5t219.5 35q92 0 175 -18.5t140 -49.5l-63 -164q-52 29 -118.5 44.5t-144.5 15.5q-75 0 -141.5 -23.5t-122 -66.5t-95.5 -105.5t-60 -140.5h602l-47 -145 h-584q-4 -27 -6 -56.5t-2 -60.5q0 -23 1 -51.5t5 -51.5h524l-47 -145h-455q15 -74 53 -134.5t94 -104.5t127 -68.5t152 -24.5q80 0 147.5 17.5t127.5 56.5l72 -156q-66 -43 -157 -67.5t-202 -24.5q-133 0 -236.5 42t-180 111.5t-125 161t-68.5 191.5h-164z" />
<glyph unicode="&#x2122;" horiz-adv-x="2048" d="M114 1303v147h690v-147h-260v-697h-166v697h-264zM974 606v844h242l231 -598l232 598h239v-844h-168v629h-4l-243 -629h-113l-246 629h-4v-629h-166z" />
<glyph unicode="&#xe000;" horiz-adv-x="970" d="M0 0v970h970v-970h-970z" />
<glyph unicode="&#xfb01;" horiz-adv-x="1175" d="M12 813v158h193v203q0 86 19 158.5t63 125.5t113 84t167 31q70 0 121 -14l-23 -166q-22 6 -44.5 10t-51.5 4q-55 0 -89 -19.5t-52.5 -52t-24.5 -74.5t-6 -87v-203h225v-158h-225v-813h-192v813h-193zM782 1321q0 53 37 89t90 36t91 -36t38 -89t-38 -88t-91 -35t-90 36 t-37 87zM813 0v971h192v-971h-192z" />
<glyph unicode="&#xfb02;" horiz-adv-x="1175" d="M12 813v158h193v203q0 86 19 158.5t63 125.5t113 84t167 31q70 0 121 -14l-23 -166q-22 6 -44.5 10t-51.5 4q-55 0 -89 -19.5t-52.5 -52t-24.5 -74.5t-6 -87v-203h225v-158h-225v-813h-192v813h-193zM813 0v1548h192v-1548h-192z" />
</font>
</defs>
</svg>
